<?xml version="1.0" encoding="UTF-8"?>
<svg xmlns="http://www.w3.org/2000/svg" version="1.1" width="512" height="512" viewBox="0 0 512 512"><rect x="0" y="0" width="512" height="512" fill="#ffffff"/><g transform="scale(13.838)"><g transform="translate(0,0)"><path fill-rule="evenodd" d="M8 0L8 1L9 1L9 2L10 2L10 3L11 3L11 1L14 1L14 2L12 2L12 4L11 4L11 5L10 5L10 4L9 4L9 5L10 5L10 8L9 8L9 6L8 6L8 8L9 8L9 9L12 9L12 10L11 10L11 12L10 12L10 11L7 11L7 10L8 10L8 9L7 9L7 8L6 8L6 9L5 9L5 8L3 8L3 9L2 9L2 8L0 8L0 11L1 11L1 12L2 12L2 11L1 11L1 9L2 9L2 10L3 10L3 11L4 11L4 12L3 12L3 13L2 13L2 14L1 14L1 15L2 15L2 16L1 16L1 17L3 17L3 16L4 16L4 18L5 18L5 17L7 17L7 18L6 18L6 19L7 19L7 18L8 18L8 22L6 22L6 21L7 21L7 20L5 20L5 22L6 22L6 23L5 23L5 24L3 24L3 22L1 22L1 20L0 20L0 24L1 24L1 25L0 25L0 29L1 29L1 27L2 27L2 29L3 29L3 27L2 27L2 26L4 26L4 27L5 27L5 28L4 28L4 29L7 29L7 28L6 28L6 27L7 27L7 26L8 26L8 25L10 25L10 27L11 27L11 22L10 22L10 21L11 21L11 19L12 19L12 21L14 21L14 24L13 24L13 25L12 25L12 26L13 26L13 25L15 25L15 26L14 26L14 27L12 27L12 28L11 28L11 30L12 30L12 31L11 31L11 32L8 32L8 34L9 34L9 35L8 35L8 37L9 37L9 35L10 35L10 36L11 36L11 37L14 37L14 31L16 31L16 32L15 32L15 35L16 35L16 33L17 33L17 34L22 34L22 35L23 35L23 36L22 36L22 37L25 37L25 36L24 36L24 33L25 33L25 32L26 32L26 34L25 34L25 35L26 35L26 36L28 36L28 37L29 37L29 36L28 36L28 33L29 33L29 35L30 35L30 37L31 37L31 35L30 35L30 34L32 34L32 35L33 35L33 34L32 34L32 33L33 33L33 31L34 31L34 29L35 29L35 30L36 30L36 31L37 31L37 30L36 30L36 28L37 28L37 26L36 26L36 25L37 25L37 22L36 22L36 21L37 21L37 18L36 18L36 20L35 20L35 22L36 22L36 23L34 23L34 22L33 22L33 19L31 19L31 20L30 20L30 19L29 19L29 22L28 22L28 17L27 17L27 18L26 18L26 16L27 16L27 15L28 15L28 16L29 16L29 18L30 18L30 17L31 17L31 16L32 16L32 15L33 15L33 14L36 14L36 16L35 16L35 15L34 15L34 19L35 19L35 17L37 17L37 14L36 14L36 11L37 11L37 10L34 10L34 9L32 9L32 10L30 10L30 9L31 9L31 8L30 8L30 9L29 9L29 6L28 6L28 8L27 8L27 6L26 6L26 5L25 5L25 4L26 4L26 2L27 2L27 4L29 4L29 3L28 3L28 2L29 2L29 1L28 1L28 2L27 2L27 1L26 1L26 0L25 0L25 1L24 1L24 2L23 2L23 4L22 4L22 1L23 1L23 0L22 0L22 1L21 1L21 0L20 0L20 1L19 1L19 0L18 0L18 1L16 1L16 2L18 2L18 3L15 3L15 1L14 1L14 0L11 0L11 1L9 1L9 0ZM18 1L18 2L19 2L19 4L18 4L18 5L19 5L19 7L18 7L18 6L17 6L17 7L16 7L16 5L17 5L17 4L15 4L15 3L14 3L14 4L12 4L12 5L11 5L11 7L12 7L12 9L13 9L13 10L12 10L12 11L13 11L13 13L10 13L10 12L7 12L7 11L6 11L6 10L7 10L7 9L6 9L6 10L5 10L5 9L4 9L4 11L6 11L6 12L4 12L4 13L3 13L3 14L2 14L2 15L6 15L6 16L7 16L7 15L8 15L8 18L9 18L9 19L10 19L10 18L9 18L9 15L11 15L11 14L13 14L13 15L12 15L12 16L10 16L10 17L14 17L14 18L12 18L12 19L13 19L13 20L14 20L14 19L15 19L15 20L16 20L16 21L17 21L17 22L19 22L19 23L18 23L18 24L17 24L17 23L16 23L16 24L15 24L15 25L16 25L16 27L17 27L17 29L16 29L16 31L17 31L17 32L18 32L18 33L20 33L20 32L19 32L19 31L18 31L18 30L17 30L17 29L20 29L20 30L21 30L21 33L22 33L22 30L24 30L24 31L23 31L23 32L25 32L25 31L26 31L26 32L27 32L27 31L28 31L28 28L27 28L27 27L26 27L26 26L27 26L27 25L28 25L28 27L29 27L29 28L30 28L30 27L31 27L31 25L30 25L30 24L29 24L29 23L27 23L27 22L26 22L26 20L27 20L27 19L26 19L26 20L25 20L25 19L23 19L23 18L25 18L25 17L22 17L22 15L21 15L21 14L20 14L20 13L22 13L22 14L23 14L23 16L26 16L26 14L27 14L27 12L28 12L28 13L29 13L29 12L30 12L30 11L29 11L29 9L28 9L28 11L27 11L27 10L26 10L26 8L25 8L25 7L26 7L26 6L25 6L25 7L24 7L24 6L23 6L23 7L22 7L22 6L21 6L21 5L22 5L22 4L21 4L21 1L20 1L20 2L19 2L19 1ZM24 2L24 3L25 3L25 2ZM14 4L14 5L12 5L12 7L13 7L13 8L14 8L14 12L15 12L15 13L14 13L14 17L15 17L15 19L16 19L16 18L17 18L17 15L18 15L18 18L19 18L19 22L20 22L20 23L19 23L19 24L20 24L20 26L17 26L17 27L18 27L18 28L19 28L19 27L22 27L22 29L25 29L25 30L26 30L26 29L27 29L27 28L23 28L23 26L24 26L24 25L22 25L22 26L21 26L21 23L22 23L22 24L25 24L25 22L24 22L24 21L23 21L23 22L21 22L21 19L22 19L22 18L21 18L21 19L20 19L20 17L19 17L19 15L20 15L20 14L17 14L17 15L16 15L16 12L15 12L15 11L16 11L16 10L17 10L17 12L18 12L18 13L20 13L20 12L21 12L21 10L22 10L22 11L24 11L24 12L23 12L23 14L24 14L24 12L25 12L25 11L24 11L24 9L23 9L23 8L22 8L22 9L19 9L19 8L17 8L17 9L16 9L16 8L14 8L14 7L15 7L15 6L14 6L14 5L15 5L15 4ZM19 4L19 5L21 5L21 4ZM23 4L23 5L24 5L24 4ZM13 6L13 7L14 7L14 6ZM20 6L20 7L21 7L21 6ZM36 8L36 9L37 9L37 8ZM17 9L17 10L19 10L19 11L18 11L18 12L19 12L19 11L20 11L20 10L19 10L19 9ZM33 10L33 11L31 11L31 13L30 13L30 14L28 14L28 15L29 15L29 16L31 16L31 15L30 15L30 14L31 14L31 13L33 13L33 12L34 12L34 13L35 13L35 12L34 12L34 10ZM26 11L26 12L27 12L27 11ZM6 12L6 13L4 13L4 14L6 14L6 15L7 15L7 14L8 14L8 15L9 15L9 13L7 13L7 12ZM6 13L6 14L7 14L7 13ZM25 13L25 14L26 14L26 13ZM15 15L15 16L16 16L16 15ZM1 18L1 19L2 19L2 21L4 21L4 19L3 19L3 18ZM17 20L17 21L18 21L18 20ZM31 20L31 21L30 21L30 22L31 22L31 23L33 23L33 24L32 24L32 25L34 25L34 26L33 26L33 28L34 28L34 26L35 26L35 25L36 25L36 24L34 24L34 23L33 23L33 22L32 22L32 20ZM8 22L8 24L9 24L9 23L10 23L10 22ZM12 22L12 23L13 23L13 22ZM6 23L6 24L7 24L7 23ZM26 23L26 24L27 24L27 23ZM2 24L2 25L1 25L1 26L2 26L2 25L3 25L3 24ZM16 24L16 25L17 25L17 24ZM28 24L28 25L29 25L29 24ZM4 25L4 26L5 26L5 25ZM6 25L6 26L7 26L7 25ZM25 25L25 26L26 26L26 25ZM29 26L29 27L30 27L30 26ZM35 27L35 28L36 28L36 27ZM9 28L9 29L8 29L8 30L9 30L9 31L10 31L10 28ZM13 28L13 29L12 29L12 30L15 30L15 28ZM29 29L29 32L32 32L32 29ZM30 30L30 31L31 31L31 30ZM12 31L12 33L11 33L11 34L12 34L12 35L13 35L13 34L12 34L12 33L13 33L13 31ZM9 33L9 34L10 34L10 33ZM34 33L34 34L36 34L36 35L34 35L34 36L36 36L36 37L37 37L37 33ZM17 35L17 36L15 36L15 37L17 37L17 36L18 36L18 35ZM19 36L19 37L20 37L20 36ZM32 36L32 37L33 37L33 36ZM0 0L0 7L7 7L7 0ZM1 1L1 6L6 6L6 1ZM2 2L2 5L5 5L5 2ZM30 0L30 7L37 7L37 0ZM31 1L31 6L36 6L36 1ZM32 2L32 5L35 5L35 2ZM0 30L0 37L7 37L7 30ZM1 31L1 36L6 36L6 31ZM2 32L2 35L5 35L5 32Z" fill="#000000"/></g></g></svg>
