<?xml version="1.0" encoding="UTF-8"?>
<svg xmlns="http://www.w3.org/2000/svg" version="1.1" width="512" height="512" viewBox="0 0 512 512"><rect x="0" y="0" width="512" height="512" fill="#ffffff"/><g transform="scale(10.449)"><g transform="translate(0,0)"><path fill-rule="evenodd" d="M10 0L10 1L11 1L11 2L12 2L12 0ZM14 0L14 1L13 1L13 2L14 2L14 3L13 3L13 4L15 4L15 5L16 5L16 4L15 4L15 0ZM17 0L17 1L16 1L16 3L17 3L17 5L18 5L18 4L21 4L21 5L22 5L22 7L21 7L21 6L20 6L20 5L19 5L19 6L18 6L18 7L19 7L19 6L20 6L20 7L21 7L21 8L20 8L20 9L21 9L21 11L20 11L20 10L19 10L19 11L18 11L18 9L19 9L19 8L18 8L18 9L17 9L17 12L18 12L18 15L17 15L17 13L16 13L16 12L15 12L15 13L16 13L16 14L15 14L15 15L16 15L16 16L15 16L15 17L14 17L14 18L12 18L12 17L11 17L11 18L10 18L10 16L9 16L9 14L10 14L10 13L11 13L11 14L13 14L13 15L14 15L14 13L12 13L12 12L11 12L11 11L10 11L10 10L15 10L15 11L16 11L16 10L15 10L15 9L14 9L14 7L15 7L15 8L16 8L16 7L17 7L17 6L16 6L16 7L15 7L15 6L14 6L14 7L13 7L13 6L12 6L12 7L13 7L13 9L11 9L11 8L10 8L10 7L11 7L11 5L12 5L12 4L10 4L10 7L9 7L9 5L8 5L8 7L9 7L9 8L6 8L6 9L5 9L5 8L0 8L0 10L2 10L2 11L3 11L3 12L1 12L1 13L3 13L3 12L4 12L4 13L5 13L5 14L6 14L6 15L8 15L8 16L4 16L4 14L2 14L2 15L0 15L0 19L1 19L1 18L3 18L3 19L2 19L2 21L0 21L0 22L1 22L1 23L0 23L0 24L1 24L1 25L0 25L0 26L3 26L3 30L2 30L2 29L1 29L1 30L2 30L2 31L0 31L0 32L4 32L4 33L1 33L1 34L0 34L0 35L1 35L1 36L6 36L6 37L8 37L8 35L10 35L10 34L11 34L11 35L14 35L14 36L10 36L10 37L9 37L9 39L8 39L8 38L5 38L5 39L8 39L8 40L6 40L6 41L8 41L8 43L11 43L11 42L10 42L10 40L11 40L11 41L12 41L12 45L9 45L9 44L8 44L8 49L9 49L9 48L10 48L10 49L12 49L12 47L11 47L11 48L10 48L10 46L12 46L12 45L13 45L13 46L14 46L14 45L13 45L13 44L14 44L14 43L13 43L13 42L15 42L15 43L16 43L16 42L15 42L15 41L17 41L17 42L18 42L18 43L17 43L17 44L18 44L18 45L16 45L16 44L15 44L15 45L16 45L16 46L15 46L15 47L14 47L14 48L15 48L15 49L19 49L19 47L20 47L20 49L22 49L22 48L23 48L23 49L24 49L24 48L23 48L23 47L25 47L25 45L28 45L28 44L30 44L30 46L29 46L29 47L28 47L28 46L27 46L27 47L28 47L28 48L25 48L25 49L28 49L28 48L30 48L30 49L31 49L31 47L30 47L30 46L31 46L31 44L34 44L34 45L33 45L33 46L34 46L34 47L32 47L32 48L33 48L33 49L37 49L37 48L35 48L35 47L36 47L36 46L37 46L37 44L36 44L36 46L34 46L34 45L35 45L35 44L34 44L34 43L35 43L35 42L36 42L36 43L37 43L37 42L36 42L36 41L37 41L37 40L39 40L39 42L38 42L38 43L39 43L39 44L38 44L38 45L39 45L39 44L40 44L40 46L38 46L38 47L39 47L39 48L38 48L38 49L39 49L39 48L40 48L40 49L42 49L42 48L43 48L43 49L44 49L44 48L43 48L43 47L42 47L42 48L41 48L41 47L40 47L40 46L46 46L46 45L47 45L47 44L46 44L46 43L47 43L47 42L48 42L48 43L49 43L49 42L48 42L48 40L46 40L46 38L43 38L43 37L47 37L47 39L49 39L49 38L48 38L48 37L49 37L49 34L48 34L48 35L47 35L47 33L45 33L45 31L47 31L47 32L48 32L48 31L49 31L49 30L48 30L48 31L47 31L47 30L46 30L46 29L48 29L48 28L49 28L49 26L48 26L48 25L49 25L49 24L48 24L48 25L47 25L47 24L46 24L46 21L47 21L47 20L48 20L48 21L49 21L49 18L48 18L48 16L49 16L49 14L47 14L47 12L46 12L46 14L47 14L47 15L48 15L48 16L46 16L46 15L44 15L44 14L43 14L43 12L45 12L45 11L44 11L44 10L43 10L43 9L44 9L44 8L43 8L43 9L42 9L42 8L40 8L40 7L41 7L41 6L40 6L40 7L39 7L39 5L38 5L38 4L37 4L37 3L36 3L36 2L39 2L39 4L40 4L40 3L41 3L41 0L40 0L40 1L38 1L38 0L35 0L35 1L32 1L32 0L30 0L30 1L29 1L29 0L27 0L27 1L24 1L24 2L23 2L23 1L22 1L22 0L21 0L21 1L20 1L20 2L21 2L21 3L17 3L17 1L18 1L18 2L19 2L19 1L18 1L18 0ZM8 1L8 2L9 2L9 1ZM21 1L21 2L22 2L22 4L24 4L24 3L25 3L25 4L27 4L27 8L28 8L28 10L27 10L27 9L26 9L26 10L27 10L27 11L26 11L26 12L25 12L25 11L24 11L24 9L23 9L23 11L22 11L22 12L23 12L23 14L24 14L24 12L25 12L25 14L27 14L27 13L28 13L28 15L27 15L27 16L26 16L26 15L24 15L24 16L23 16L23 15L22 15L22 16L23 16L23 17L22 17L22 18L23 18L23 19L22 19L22 20L21 20L21 17L20 17L20 16L21 16L21 13L19 13L19 14L20 14L20 15L18 15L18 16L17 16L17 17L15 17L15 21L13 21L13 23L10 23L10 24L12 24L12 26L13 26L13 27L14 27L14 28L8 28L8 27L4 27L4 28L7 28L7 29L6 29L6 30L4 30L4 31L6 31L6 32L5 32L5 33L4 33L4 34L1 34L1 35L6 35L6 36L7 36L7 35L8 35L8 34L9 34L9 32L10 32L10 33L12 33L12 34L14 34L14 33L15 33L15 35L16 35L16 36L15 36L15 37L13 37L13 40L12 40L12 39L11 39L11 40L12 40L12 41L15 41L15 40L14 40L14 39L16 39L16 40L17 40L17 38L18 38L18 37L19 37L19 39L20 39L20 40L19 40L19 41L18 41L18 42L19 42L19 43L21 43L21 42L22 42L22 41L20 41L20 40L21 40L21 39L22 39L22 40L24 40L24 37L25 37L25 35L27 35L27 34L28 34L28 35L29 35L29 36L28 36L28 37L29 37L29 38L28 38L28 39L27 39L27 38L26 38L26 39L25 39L25 40L26 40L26 39L27 39L27 40L28 40L28 41L27 41L27 42L28 42L28 43L29 43L29 41L31 41L31 43L34 43L34 42L35 42L35 41L34 41L34 42L32 42L32 41L33 41L33 40L30 40L30 39L31 39L31 38L32 38L32 39L34 39L34 40L35 40L35 39L36 39L36 40L37 40L37 39L38 39L38 38L39 38L39 37L38 37L38 36L40 36L40 38L41 38L41 39L39 39L39 40L45 40L45 41L46 41L46 42L47 42L47 41L46 41L46 40L45 40L45 39L42 39L42 36L45 36L45 33L44 33L44 30L45 30L45 29L46 29L46 28L47 28L47 27L48 27L48 26L47 26L47 25L46 25L46 24L45 24L45 25L46 25L46 26L47 26L47 27L46 27L46 28L45 28L45 29L43 29L43 31L42 31L42 29L41 29L41 27L40 27L40 26L39 26L39 25L40 25L40 22L42 22L42 21L43 21L43 22L44 22L44 21L45 21L45 20L41 20L41 18L42 18L42 19L45 19L45 18L46 18L46 20L47 20L47 19L48 19L48 18L47 18L47 17L46 17L46 16L43 16L43 14L42 14L42 13L40 13L40 12L43 12L43 10L42 10L42 9L40 9L40 8L39 8L39 7L38 7L38 6L37 6L37 7L36 7L36 5L37 5L37 4L36 4L36 3L35 3L35 4L34 4L34 5L35 5L35 7L34 7L34 6L33 6L33 3L31 3L31 4L32 4L32 6L31 6L31 5L30 5L30 4L29 4L29 3L30 3L30 2L31 2L31 1L30 1L30 2L29 2L29 3L25 3L25 2L24 2L24 3L23 3L23 2L22 2L22 1ZM8 3L8 4L9 4L9 3ZM28 4L28 8L29 8L29 9L30 9L30 10L29 10L29 11L27 11L27 12L29 12L29 11L30 11L30 12L33 12L33 13L32 13L32 14L34 14L34 17L35 17L35 18L33 18L33 17L32 17L32 18L33 18L33 19L30 19L30 20L29 20L29 19L28 19L28 18L29 18L29 17L28 17L28 16L29 16L29 15L30 15L30 16L33 16L33 15L30 15L30 14L31 14L31 13L30 13L30 14L29 14L29 15L28 15L28 16L27 16L27 18L26 18L26 16L24 16L24 19L25 19L25 18L26 18L26 19L28 19L28 20L29 20L29 21L27 21L27 22L25 22L25 20L22 20L22 21L21 21L21 20L20 20L20 17L19 17L19 16L18 16L18 17L19 17L19 21L18 21L18 20L17 20L17 21L18 21L18 22L17 22L17 23L18 23L18 25L19 25L19 26L18 26L18 27L17 27L17 28L18 28L18 29L16 29L16 28L15 28L15 29L16 29L16 30L14 30L14 29L11 29L11 31L10 31L10 29L7 29L7 30L6 30L6 31L8 31L8 32L9 32L9 31L10 31L10 32L12 32L12 33L13 33L13 32L12 32L12 31L13 31L13 30L14 30L14 32L15 32L15 31L16 31L16 33L17 33L17 35L18 35L18 33L19 33L19 34L20 34L20 35L21 35L21 36L20 36L20 37L21 37L21 38L23 38L23 37L24 37L24 34L25 34L25 33L26 33L26 34L27 34L27 33L28 33L28 34L29 34L29 35L30 35L30 34L31 34L31 32L33 32L33 33L32 33L32 34L33 34L33 35L31 35L31 36L29 36L29 37L30 37L30 38L29 38L29 39L28 39L28 40L29 40L29 39L30 39L30 38L31 38L31 36L33 36L33 38L34 38L34 39L35 39L35 38L34 38L34 37L37 37L37 36L35 36L35 34L34 34L34 32L33 32L33 31L36 31L36 30L37 30L37 31L41 31L41 33L40 33L40 32L38 32L38 33L40 33L40 34L38 34L38 35L41 35L41 36L42 36L42 35L44 35L44 34L42 34L42 35L41 35L41 33L43 33L43 32L42 32L42 31L41 31L41 30L40 30L40 28L39 28L39 26L38 26L38 28L35 28L35 27L37 27L37 24L35 24L35 26L34 26L34 27L30 27L30 26L31 26L31 24L34 24L34 23L36 23L36 21L37 21L37 20L38 20L38 17L37 17L37 16L36 16L36 14L34 14L34 13L35 13L35 12L34 12L34 11L30 11L30 10L32 10L32 9L31 9L31 6L30 6L30 5L29 5L29 4ZM23 5L23 8L26 8L26 5ZM24 6L24 7L25 7L25 6ZM29 6L29 8L30 8L30 6ZM32 6L32 8L33 8L33 9L34 9L34 8L33 8L33 6ZM9 8L9 9L8 9L8 10L10 10L10 8ZM21 8L21 9L22 9L22 8ZM35 8L35 9L36 9L36 10L35 10L35 11L37 11L37 12L36 12L36 13L37 13L37 12L38 12L38 11L39 11L39 12L40 12L40 9L39 9L39 10L37 10L37 8ZM45 8L45 10L46 10L46 8ZM47 8L47 9L48 9L48 8ZM2 9L2 10L5 10L5 11L4 11L4 12L7 12L7 13L6 13L6 14L9 14L9 13L10 13L10 12L9 12L9 13L8 13L8 12L7 12L7 11L6 11L6 10L7 10L7 9L6 9L6 10L5 10L5 9ZM41 10L41 11L42 11L42 10ZM48 10L48 11L49 11L49 10ZM13 11L13 12L14 12L14 11ZM48 12L48 13L49 13L49 12ZM39 13L39 14L37 14L37 15L39 15L39 14L40 14L40 13ZM41 14L41 15L42 15L42 14ZM11 15L11 16L12 16L12 15ZM1 16L1 17L2 17L2 16ZM8 16L8 17L5 17L5 18L7 18L7 19L5 19L5 21L4 21L4 20L3 20L3 21L4 21L4 22L2 22L2 23L1 23L1 24L2 24L2 25L4 25L4 24L3 24L3 23L4 23L4 22L5 22L5 21L6 21L6 22L7 22L7 21L8 21L8 22L9 22L9 21L11 21L11 22L12 22L12 21L11 21L11 20L14 20L14 19L11 19L11 20L10 20L10 19L8 19L8 18L9 18L9 16ZM40 16L40 17L39 17L39 20L40 20L40 21L39 21L39 22L37 22L37 23L38 23L38 25L39 25L39 22L40 22L40 21L41 21L41 20L40 20L40 17L41 17L41 16ZM30 17L30 18L31 18L31 17ZM42 17L42 18L43 18L43 17ZM44 17L44 18L45 18L45 17ZM17 18L17 19L18 19L18 18ZM35 18L35 19L33 19L33 20L30 20L30 21L29 21L29 22L28 22L28 23L27 23L27 24L28 24L28 25L29 25L29 26L30 26L30 25L29 25L29 24L28 24L28 23L29 23L29 22L30 22L30 24L31 24L31 22L30 22L30 21L33 21L33 20L37 20L37 19L36 19L36 18ZM7 19L7 20L6 20L6 21L7 21L7 20L8 20L8 21L9 21L9 20L8 20L8 19ZM15 21L15 22L16 22L16 21ZM19 21L19 22L18 22L18 23L19 23L19 24L20 24L20 22L21 22L21 23L22 23L22 22L23 22L23 21L22 21L22 22L21 22L21 21ZM34 21L34 22L32 22L32 23L34 23L34 22L35 22L35 21ZM47 22L47 23L49 23L49 22ZM5 23L5 26L8 26L8 23ZM14 23L14 24L15 24L15 25L13 25L13 26L15 26L15 27L16 27L16 26L15 26L15 25L17 25L17 24L16 24L16 23ZM23 23L23 26L26 26L26 23ZM41 23L41 26L44 26L44 23ZM6 24L6 25L7 25L7 24ZM24 24L24 25L25 25L25 24ZM42 24L42 25L43 25L43 24ZM9 25L9 26L10 26L10 25ZM20 25L20 26L19 26L19 27L20 27L20 26L21 26L21 27L22 27L22 28L21 28L21 29L19 29L19 31L18 31L18 30L17 30L17 32L19 32L19 33L20 33L20 34L21 34L21 35L22 35L22 36L23 36L23 33L25 33L25 32L26 32L26 31L27 31L27 32L28 32L28 33L29 33L29 34L30 34L30 31L33 31L33 30L32 30L32 29L34 29L34 30L36 30L36 29L35 29L35 28L31 28L31 30L30 30L30 29L29 29L29 28L30 28L30 27L29 27L29 28L28 28L28 30L26 30L26 31L25 31L25 32L24 32L24 29L25 29L25 28L26 28L26 29L27 29L27 28L26 28L26 27L22 27L22 26L21 26L21 25ZM42 27L42 28L43 28L43 27ZM23 28L23 29L24 29L24 28ZM38 28L38 29L37 29L37 30L39 30L39 28ZM21 29L21 30L20 30L20 31L21 31L21 30L22 30L22 29ZM8 30L8 31L9 31L9 30ZM28 30L28 32L29 32L29 31L30 31L30 30ZM22 31L22 32L20 32L20 33L21 33L21 34L22 34L22 33L23 33L23 31ZM6 32L6 33L5 33L5 34L6 34L6 35L7 35L7 34L6 34L6 33L7 33L7 32ZM35 32L35 33L37 33L37 32ZM36 34L36 35L37 35L37 34ZM33 35L33 36L34 36L34 35ZM46 35L46 36L47 36L47 37L48 37L48 36L47 36L47 35ZM17 36L17 37L18 37L18 36ZM1 37L1 40L0 40L0 41L3 41L3 40L4 40L4 39L2 39L2 38L4 38L4 37ZM10 37L10 38L12 38L12 37ZM15 37L15 38L16 38L16 37ZM36 38L36 39L37 39L37 38ZM9 39L9 40L8 40L8 41L9 41L9 40L10 40L10 39ZM23 41L23 44L26 44L26 41ZM41 41L41 44L44 44L44 41ZM24 42L24 43L25 43L25 42ZM42 42L42 43L43 43L43 42ZM19 44L19 45L20 45L20 47L21 47L21 45L22 45L22 44L21 44L21 45L20 45L20 44ZM45 44L45 45L46 45L46 44ZM48 44L48 45L49 45L49 44ZM17 46L17 48L18 48L18 46ZM22 46L22 47L23 47L23 46ZM15 47L15 48L16 48L16 47ZM45 47L45 48L46 48L46 49L49 49L49 47L48 47L48 48L46 48L46 47ZM0 0L0 7L7 7L7 0ZM1 1L1 6L6 6L6 1ZM2 2L2 5L5 5L5 2ZM42 0L42 7L49 7L49 0ZM43 1L43 6L48 6L48 1ZM44 2L44 5L47 5L47 2ZM0 42L0 49L7 49L7 42ZM1 43L1 48L6 48L6 43ZM2 44L2 47L5 47L5 44Z" fill="#000000"/></g></g></svg>
