<?xml version="1.0" encoding="UTF-8"?>
<svg xmlns="http://www.w3.org/2000/svg" version="1.1" width="512" height="512" viewBox="0 0 512 512"><rect x="0" y="0" width="512" height="512" fill="#ffffff"/><g transform="scale(17.655)"><g transform="translate(0,0)"><path fill-rule="evenodd" d="M8 0L8 1L9 1L9 2L8 2L8 5L9 5L9 4L11 4L11 5L10 5L10 10L9 10L9 11L8 11L8 10L6 10L6 9L7 9L7 8L6 8L6 9L4 9L4 8L0 8L0 9L1 9L1 10L0 10L0 12L1 12L1 11L2 11L2 13L3 13L3 12L4 12L4 13L5 13L5 14L3 14L3 16L2 16L2 14L1 14L1 13L0 13L0 17L1 17L1 18L0 18L0 19L1 19L1 18L2 18L2 17L3 17L3 16L4 16L4 17L5 17L5 18L6 18L6 19L9 19L9 20L8 20L8 22L10 22L10 23L11 23L11 24L9 24L9 25L8 25L8 29L9 29L9 28L10 28L10 29L12 29L12 28L14 28L14 27L15 27L15 28L16 28L16 29L17 29L17 27L18 27L18 28L19 28L19 27L18 27L18 26L19 26L19 23L20 23L20 25L21 25L21 26L20 26L20 29L21 29L21 28L22 28L22 29L24 29L24 26L26 26L26 27L25 27L25 28L26 28L26 27L27 27L27 29L28 29L28 27L29 27L29 25L28 25L28 27L27 27L27 26L26 26L26 25L27 25L27 24L26 24L26 22L27 22L27 23L28 23L28 24L29 24L29 23L28 23L28 22L29 22L29 21L27 21L27 18L28 18L28 15L29 15L29 13L27 13L27 12L25 12L25 13L26 13L26 15L27 15L27 17L26 17L26 16L24 16L24 14L23 14L23 13L22 13L22 14L21 14L21 13L20 13L20 12L21 12L21 11L20 11L20 12L19 12L19 14L18 14L18 12L17 12L17 11L19 11L19 10L21 10L21 9L22 9L22 12L24 12L24 11L23 11L23 10L25 10L25 9L27 9L27 8L24 8L24 9L22 9L22 8L21 8L21 5L20 5L20 4L21 4L21 3L20 3L20 4L19 4L19 5L17 5L17 4L18 4L18 3L19 3L19 2L18 2L18 3L17 3L17 4L15 4L15 3L16 3L16 2L15 2L15 3L14 3L14 5L13 5L13 3L12 3L12 4L11 4L11 2L14 2L14 0L12 0L12 1L11 1L11 0L10 0L10 1L9 1L9 0ZM15 0L15 1L16 1L16 0ZM18 0L18 1L20 1L20 2L21 2L21 0ZM12 5L12 6L11 6L11 8L12 8L12 6L13 6L13 8L14 8L14 9L15 9L15 10L14 10L14 11L11 11L11 13L9 13L9 12L8 12L8 11L6 11L6 12L7 12L7 13L6 13L6 14L5 14L5 15L4 15L4 16L7 16L7 17L6 17L6 18L9 18L9 19L10 19L10 20L9 20L9 21L10 21L10 22L11 22L11 23L14 23L14 22L15 22L15 24L12 24L12 26L11 26L11 25L10 25L10 28L12 28L12 26L13 26L13 27L14 27L14 26L15 26L15 27L17 27L17 25L16 25L16 26L15 26L15 24L18 24L18 22L17 22L17 21L13 21L13 18L14 18L14 15L15 15L15 17L16 17L16 18L18 18L18 16L19 16L19 15L18 15L18 14L14 14L14 12L15 12L15 11L16 11L16 8L17 8L17 7L18 7L18 6L17 6L17 5L14 5L14 6L13 6L13 5ZM8 6L8 7L9 7L9 6ZM14 6L14 7L15 7L15 6ZM16 6L16 7L17 7L17 6ZM19 6L19 8L20 8L20 6ZM8 8L8 9L9 9L9 8ZM28 8L28 10L26 10L26 11L28 11L28 12L29 12L29 11L28 11L28 10L29 10L29 8ZM2 9L2 11L3 11L3 9ZM11 9L11 10L12 10L12 9ZM17 9L17 10L18 10L18 9ZM4 10L4 11L5 11L5 10ZM12 12L12 13L11 13L11 14L9 14L9 15L10 15L10 16L12 16L12 17L13 17L13 16L12 16L12 14L13 14L13 15L14 15L14 14L13 14L13 12ZM16 12L16 13L17 13L17 12ZM7 13L7 14L6 14L6 15L7 15L7 16L8 16L8 17L9 17L9 18L10 18L10 17L9 17L9 16L8 16L8 15L7 15L7 14L8 14L8 13ZM20 14L20 17L19 17L19 19L20 19L20 17L21 17L21 18L22 18L22 20L26 20L26 18L25 18L25 17L24 17L24 18L25 18L25 19L23 19L23 14L22 14L22 17L21 17L21 14ZM16 16L16 17L17 17L17 16ZM3 18L3 20L4 20L4 21L7 21L7 20L4 20L4 18ZM11 19L11 20L12 20L12 19ZM1 20L1 21L2 21L2 20ZM18 20L18 21L19 21L19 22L20 22L20 20ZM21 21L21 24L24 24L24 21ZM16 22L16 23L17 23L17 22ZM22 22L22 23L23 23L23 22ZM25 24L25 25L26 25L26 24ZM13 25L13 26L14 26L14 25ZM22 25L22 26L21 26L21 27L22 27L22 28L23 28L23 25ZM0 0L0 7L7 7L7 0ZM1 1L1 6L6 6L6 1ZM2 2L2 5L5 5L5 2ZM22 0L22 7L29 7L29 0ZM23 1L23 6L28 6L28 1ZM24 2L24 5L27 5L27 2ZM0 22L0 29L7 29L7 22ZM1 23L1 28L6 28L6 23ZM2 24L2 27L5 27L5 24Z" fill="#000000"/></g></g></svg>
