<?xml version="1.0" encoding="UTF-8"?>
<svg xmlns="http://www.w3.org/2000/svg" version="1.1" width="512" height="512" viewBox="0 0 512 512"><rect x="0" y="0" width="512" height="512" fill="#ffffff"/><g transform="scale(10.449)"><g transform="translate(0,0)"><path fill-rule="evenodd" d="M8 0L8 1L12 1L12 2L11 2L11 3L9 3L9 2L8 2L8 5L9 5L9 6L8 6L8 7L9 7L9 6L10 6L10 7L11 7L11 9L10 9L10 8L8 8L8 10L6 10L6 9L7 9L7 8L6 8L6 9L4 9L4 8L0 8L0 10L1 10L1 12L2 12L2 13L4 13L4 14L6 14L6 15L5 15L5 16L4 16L4 15L1 15L1 16L0 16L0 17L1 17L1 18L3 18L3 17L4 17L4 18L5 18L5 16L6 16L6 17L8 17L8 18L9 18L9 17L10 17L10 19L8 19L8 20L10 20L10 22L11 22L11 20L10 20L10 19L11 19L11 16L12 16L12 15L14 15L14 17L13 17L13 18L16 18L16 19L13 19L13 21L12 21L12 22L14 22L14 23L11 23L11 24L16 24L16 23L17 23L17 25L18 25L18 26L16 26L16 25L15 25L15 26L14 26L14 25L12 25L12 26L14 26L14 28L13 28L13 29L11 29L11 30L14 30L14 28L15 28L15 29L16 29L16 30L17 30L17 29L16 29L16 28L15 28L15 26L16 26L16 27L19 27L19 28L18 28L18 29L19 29L19 30L18 30L18 31L17 31L17 33L18 33L18 31L20 31L20 32L19 32L19 35L21 35L21 36L18 36L18 34L17 34L17 35L16 35L16 34L15 34L15 33L14 33L14 32L13 32L13 31L12 31L12 34L14 34L14 35L15 35L15 37L13 37L13 36L12 36L12 35L11 35L11 36L9 36L9 35L10 35L10 34L9 34L9 33L8 33L8 32L11 32L11 31L10 31L10 30L9 30L9 31L8 31L8 29L10 29L10 25L9 25L9 21L8 21L8 22L6 22L6 21L7 21L7 20L6 20L6 19L7 19L7 18L6 18L6 19L1 19L1 20L0 20L0 21L1 21L1 20L3 20L3 21L2 21L2 22L1 22L1 23L3 23L3 25L2 25L2 26L1 26L1 24L0 24L0 26L1 26L1 27L0 27L0 29L1 29L1 30L0 30L0 31L1 31L1 32L0 32L0 33L1 33L1 32L3 32L3 34L0 34L0 36L1 36L1 35L2 35L2 36L3 36L3 38L5 38L5 39L7 39L7 38L6 38L6 37L7 37L7 36L6 36L6 35L7 35L7 34L8 34L8 38L9 38L9 39L10 39L10 40L11 40L11 41L13 41L13 40L12 40L12 39L14 39L14 38L17 38L17 39L16 39L16 41L15 41L15 40L14 40L14 42L10 42L10 43L11 43L11 45L10 45L10 44L9 44L9 45L8 45L8 49L9 49L9 47L10 47L10 46L11 46L11 45L12 45L12 46L13 46L13 45L12 45L12 43L15 43L15 44L14 44L14 45L15 45L15 46L14 46L14 47L13 47L13 48L15 48L15 47L16 47L16 49L19 49L19 48L20 48L20 49L21 49L21 48L20 48L20 47L19 47L19 48L18 48L18 46L19 46L19 44L20 44L20 45L21 45L21 46L23 46L23 45L27 45L27 44L28 44L28 46L29 46L29 45L30 45L30 47L29 47L29 48L30 48L30 47L31 47L31 46L32 46L32 48L33 48L33 49L37 49L37 48L38 48L38 49L40 49L40 48L41 48L41 49L42 49L42 48L41 48L41 47L43 47L43 49L44 49L44 47L45 47L45 46L46 46L46 49L49 49L49 48L47 48L47 47L49 47L49 46L47 46L47 45L49 45L49 44L47 44L47 45L46 45L46 44L45 44L45 43L47 43L47 42L48 42L48 43L49 43L49 40L48 40L48 38L49 38L49 36L48 36L48 33L49 33L49 29L48 29L48 28L49 28L49 27L48 27L48 28L46 28L46 27L45 27L45 21L44 21L44 19L46 19L46 18L48 18L48 19L49 19L49 15L48 15L48 14L49 14L49 11L48 11L48 9L49 9L49 8L48 8L48 9L47 9L47 8L44 8L44 9L45 9L45 10L44 10L44 12L46 12L46 14L45 14L45 13L44 13L44 14L45 14L45 15L43 15L43 14L42 14L42 13L43 13L43 9L42 9L42 8L37 8L37 9L36 9L36 8L33 8L33 9L36 9L36 10L37 10L37 9L42 9L42 12L41 12L41 11L40 11L40 13L41 13L41 15L42 15L42 17L43 17L43 18L44 18L44 19L43 19L43 21L42 21L42 22L40 22L40 20L39 20L39 19L40 19L40 18L41 18L41 16L40 16L40 14L39 14L39 13L38 13L38 12L37 12L37 11L36 11L36 12L33 12L33 11L35 11L35 10L32 10L32 7L33 7L33 6L34 6L34 7L35 7L35 6L36 6L36 7L37 7L37 5L38 5L38 7L39 7L39 5L38 5L38 4L37 4L37 3L38 3L38 2L39 2L39 4L40 4L40 3L41 3L41 0L40 0L40 1L38 1L38 2L37 2L37 1L36 1L36 0L35 0L35 1L34 1L34 3L33 3L33 1L32 1L32 3L33 3L33 4L35 4L35 6L34 6L34 5L33 5L33 6L32 6L32 7L31 7L31 5L32 5L32 4L31 4L31 5L30 5L30 4L29 4L29 5L28 5L28 7L27 7L27 2L26 2L26 3L25 3L25 2L24 2L24 4L23 4L23 1L22 1L22 0L21 0L21 1L19 1L19 3L18 3L18 1L17 1L17 2L15 2L15 1L16 1L16 0L14 0L14 2L15 2L15 4L13 4L13 3L12 3L12 2L13 2L13 1L12 1L12 0ZM24 0L24 1L25 1L25 0ZM28 0L28 1L29 1L29 2L31 2L31 0L30 0L30 1L29 1L29 0ZM21 1L21 2L20 2L20 3L19 3L19 4L18 4L18 3L16 3L16 4L17 4L17 5L14 5L14 6L13 6L13 8L14 8L14 9L15 9L15 10L14 10L14 11L15 11L15 14L17 14L17 15L16 15L16 16L15 16L15 17L16 17L16 16L17 16L17 17L19 17L19 15L22 15L22 16L20 16L20 18L19 18L19 19L18 19L18 18L17 18L17 21L20 21L20 22L17 22L17 23L18 23L18 24L19 24L19 27L21 27L21 26L20 26L20 24L22 24L22 23L20 23L20 22L21 22L21 21L20 21L20 18L23 18L23 19L21 19L21 20L22 20L22 22L23 22L23 19L24 19L24 18L30 18L30 19L29 19L29 20L30 20L30 21L28 21L28 19L27 19L27 20L26 20L26 19L25 19L25 20L24 20L24 22L27 22L27 21L28 21L28 22L29 22L29 23L28 23L28 25L27 25L27 27L28 27L28 26L30 26L30 27L29 27L29 28L25 28L25 27L24 27L24 28L23 28L23 27L22 27L22 28L23 28L23 30L22 30L22 29L21 29L21 28L20 28L20 30L21 30L21 31L22 31L22 32L21 32L21 33L20 33L20 34L21 34L21 33L22 33L22 32L23 32L23 31L24 31L24 33L25 33L25 36L24 36L24 38L23 38L23 37L21 37L21 38L23 38L23 39L22 39L22 40L24 40L24 39L25 39L25 40L26 40L26 39L27 39L27 42L30 42L30 43L29 43L29 44L31 44L31 43L32 43L32 45L34 45L34 46L36 46L36 47L35 47L35 48L36 48L36 47L38 47L38 48L40 48L40 47L41 47L41 46L42 46L42 45L41 45L41 46L40 46L40 45L39 45L39 44L40 44L40 43L39 43L39 44L38 44L38 45L37 45L37 44L33 44L33 43L34 43L34 40L35 40L35 41L36 41L36 42L40 42L40 40L41 40L41 39L42 39L42 40L45 40L45 39L46 39L46 40L47 40L47 38L48 38L48 36L47 36L47 37L46 37L46 38L44 38L44 37L42 37L42 36L40 36L40 37L39 37L39 36L37 36L37 37L36 37L36 35L40 35L40 32L41 32L41 33L42 33L42 28L43 28L43 27L42 27L42 28L41 28L41 27L39 27L39 29L38 29L38 27L37 27L37 26L38 26L38 25L39 25L39 26L40 26L40 25L39 25L39 24L38 24L38 23L40 23L40 22L39 22L39 20L38 20L38 18L40 18L40 17L39 17L39 15L38 15L38 13L37 13L37 15L35 15L35 14L36 14L36 13L33 13L33 12L32 12L32 10L31 10L31 11L30 11L30 9L31 9L31 8L30 8L30 6L29 6L29 8L30 8L30 9L28 9L28 8L27 8L27 9L26 9L26 10L25 10L25 9L22 9L22 8L21 8L21 7L22 7L22 4L21 4L21 3L22 3L22 1ZM35 1L35 4L36 4L36 1ZM9 4L9 5L10 5L10 4ZM12 4L12 5L11 5L11 7L12 7L12 5L13 5L13 4ZM19 4L19 5L17 5L17 6L16 6L16 7L15 7L15 6L14 6L14 7L15 7L15 9L16 9L16 8L18 8L18 7L19 7L19 8L20 8L20 9L21 9L21 10L22 10L22 13L20 13L20 14L22 14L22 15L23 15L23 16L22 16L22 17L23 17L23 16L26 16L26 17L27 17L27 12L28 12L28 11L26 11L26 15L25 15L25 14L24 14L24 15L23 15L23 13L25 13L25 10L22 10L22 9L21 9L21 8L20 8L20 7L21 7L21 5L20 5L20 4ZM23 5L23 8L26 8L26 5ZM17 6L17 7L18 7L18 6ZM19 6L19 7L20 7L20 6ZM24 6L24 7L25 7L25 6ZM40 6L40 7L41 7L41 6ZM1 9L1 10L4 10L4 9ZM11 9L11 10L9 10L9 11L8 11L8 12L9 12L9 13L10 13L10 14L11 14L11 15L10 15L10 16L11 16L11 15L12 15L12 14L11 14L11 13L12 13L12 11L13 11L13 10L12 10L12 9ZM27 9L27 10L28 10L28 9ZM46 9L46 11L47 11L47 13L48 13L48 11L47 11L47 9ZM11 10L11 11L9 11L9 12L11 12L11 11L12 11L12 10ZM15 10L15 11L16 11L16 12L17 12L17 14L18 14L18 12L21 12L21 11L19 11L19 10L18 10L18 12L17 12L17 11L16 11L16 10ZM2 11L2 12L3 12L3 11ZM6 11L6 12L5 12L5 13L6 13L6 14L8 14L8 15L6 15L6 16L8 16L8 17L9 17L9 14L8 14L8 13L6 13L6 12L7 12L7 11ZM23 11L23 12L24 12L24 11ZM29 12L29 13L28 13L28 16L29 16L29 17L31 17L31 16L32 16L32 17L33 17L33 15L31 15L31 14L30 14L30 12ZM0 13L0 14L1 14L1 13ZM13 13L13 14L14 14L14 13ZM32 13L32 14L33 14L33 13ZM29 15L29 16L30 16L30 15ZM45 15L45 16L46 16L46 17L48 17L48 15ZM43 16L43 17L44 17L44 16ZM34 17L34 18L31 18L31 21L30 21L30 24L29 24L29 25L31 25L31 27L30 27L30 28L29 28L29 29L31 29L31 30L33 30L33 27L34 27L34 26L33 26L33 25L35 25L35 27L36 27L36 25L37 25L37 23L38 23L38 22L37 22L37 21L36 21L36 20L37 20L37 18L38 18L38 17L37 17L37 18L36 18L36 17ZM32 19L32 21L34 21L34 22L35 22L35 24L36 24L36 21L35 21L35 19ZM5 20L5 21L3 21L3 23L4 23L4 22L5 22L5 21L6 21L6 20ZM14 20L14 22L15 22L15 23L16 23L16 20ZM25 20L25 21L26 21L26 20ZM47 20L47 21L49 21L49 20ZM43 21L43 22L44 22L44 21ZM5 23L5 26L8 26L8 23ZM19 23L19 24L20 24L20 23ZM23 23L23 26L26 26L26 23ZM33 23L33 24L31 24L31 25L33 25L33 24L34 24L34 23ZM41 23L41 26L44 26L44 23ZM46 23L46 25L47 25L47 26L49 26L49 23L48 23L48 25L47 25L47 23ZM6 24L6 25L7 25L7 24ZM24 24L24 25L25 25L25 24ZM42 24L42 25L43 25L43 24ZM3 25L3 26L2 26L2 27L1 27L1 29L2 29L2 31L3 31L3 32L4 32L4 30L5 30L5 31L6 31L6 32L5 32L5 33L4 33L4 34L3 34L3 35L4 35L4 34L5 34L5 35L6 35L6 34L7 34L7 33L6 33L6 32L7 32L7 31L6 31L6 30L7 30L7 29L6 29L6 30L5 30L5 27L4 27L4 25ZM32 26L32 27L33 27L33 26ZM6 27L6 28L7 28L7 27ZM8 27L8 28L9 28L9 27ZM11 27L11 28L12 28L12 27ZM2 28L2 29L3 29L3 30L4 30L4 28ZM24 28L24 29L25 29L25 28ZM31 28L31 29L32 29L32 28ZM34 28L34 32L35 32L35 34L34 34L34 33L32 33L32 31L31 31L31 33L30 33L30 35L29 35L29 36L30 36L30 35L31 35L31 33L32 33L32 36L33 36L33 34L34 34L34 35L36 35L36 34L38 34L38 33L39 33L39 32L40 32L40 31L41 31L41 29L40 29L40 30L38 30L38 29L36 29L36 32L35 32L35 28ZM44 28L44 30L43 30L43 32L44 32L44 31L45 31L45 32L46 32L46 33L48 33L48 29L47 29L47 30L46 30L46 29L45 29L45 28ZM24 30L24 31L26 31L26 30ZM27 30L27 32L28 32L28 33L27 33L27 34L26 34L26 36L25 36L25 38L26 38L26 36L27 36L27 39L28 39L28 40L29 40L29 41L30 41L30 40L32 40L32 41L31 41L31 42L32 42L32 41L33 41L33 40L34 40L34 39L32 39L32 38L33 38L33 37L32 37L32 38L30 38L30 37L29 37L29 38L28 38L28 36L27 36L27 34L28 34L28 33L29 33L29 31L30 31L30 30L29 30L29 31L28 31L28 30ZM45 30L45 31L46 31L46 30ZM37 31L37 32L36 32L36 33L37 33L37 32L38 32L38 31ZM25 32L25 33L26 33L26 32ZM5 33L5 34L6 34L6 33ZM43 33L43 34L42 34L42 35L43 35L43 34L45 34L45 35L44 35L44 36L46 36L46 34L45 34L45 33ZM11 36L11 37L10 37L10 38L11 38L11 39L12 39L12 36ZM16 36L16 37L17 37L17 38L18 38L18 39L17 39L17 42L16 42L16 44L17 44L17 42L18 42L18 43L20 43L20 44L21 44L21 45L22 45L22 43L20 43L20 42L22 42L22 41L21 41L21 40L20 40L20 39L19 39L19 38L20 38L20 37L18 37L18 36ZM0 37L0 38L1 38L1 40L0 40L0 41L3 41L3 40L4 40L4 39L2 39L2 37ZM35 37L35 39L37 39L37 38L36 38L36 37ZM38 37L38 39L39 39L39 37ZM41 37L41 38L42 38L42 37ZM43 38L43 39L44 39L44 38ZM18 39L18 40L19 40L19 41L18 41L18 42L19 42L19 41L20 41L20 40L19 40L19 39ZM29 39L29 40L30 40L30 39ZM6 40L6 41L7 41L7 40ZM37 40L37 41L38 41L38 40ZM8 41L8 42L9 42L9 41ZM23 41L23 44L26 44L26 41ZM41 41L41 44L44 44L44 41ZM45 41L45 42L46 42L46 41ZM24 42L24 43L25 43L25 42ZM42 42L42 43L43 43L43 42ZM9 45L9 46L10 46L10 45ZM16 45L16 47L17 47L17 46L18 46L18 45ZM26 46L26 47L23 47L23 49L24 49L24 48L25 48L25 49L28 49L28 47L27 47L27 46ZM43 46L43 47L44 47L44 46ZM26 47L26 48L27 48L27 47ZM33 47L33 48L34 48L34 47ZM10 48L10 49L12 49L12 48ZM0 0L0 7L7 7L7 0ZM1 1L1 6L6 6L6 1ZM2 2L2 5L5 5L5 2ZM42 0L42 7L49 7L49 0ZM43 1L43 6L48 6L48 1ZM44 2L44 5L47 5L47 2ZM0 42L0 49L7 49L7 42ZM1 43L1 48L6 48L6 43ZM2 44L2 47L5 47L5 44Z" fill="#000000"/></g></g></svg>
