<?xml version="1.0" encoding="UTF-8"?>
<svg xmlns="http://www.w3.org/2000/svg" version="1.1" width="512" height="512" viewBox="0 0 512 512"><rect x="0" y="0" width="512" height="512" fill="#ffffff"/><g transform="scale(10.449)"><g transform="translate(0,0)"><path fill-rule="evenodd" d="M8 0L8 1L10 1L10 2L8 2L8 5L9 5L9 6L8 6L8 7L9 7L9 8L8 8L8 9L7 9L7 8L6 8L6 9L7 9L7 10L5 10L5 9L4 9L4 8L0 8L0 11L1 11L1 12L0 12L0 14L1 14L1 15L0 15L0 16L1 16L1 18L0 18L0 20L1 20L1 21L0 21L0 22L1 22L1 21L2 21L2 22L3 22L3 23L2 23L2 24L0 24L0 25L2 25L2 26L1 26L1 27L2 27L2 26L4 26L4 29L3 29L3 30L2 30L2 28L1 28L1 29L0 29L0 30L2 30L2 31L0 31L0 33L1 33L1 32L4 32L4 33L2 33L2 34L1 34L1 37L0 37L0 38L1 38L1 40L0 40L0 41L3 41L3 40L4 40L4 39L2 39L2 38L3 38L3 34L5 34L5 35L4 35L4 37L7 37L7 36L9 36L9 35L11 35L11 36L10 36L10 37L9 37L9 39L8 39L8 40L6 40L6 41L8 41L8 42L9 42L9 43L11 43L11 44L9 44L9 45L8 45L8 49L10 49L10 48L11 48L11 49L12 49L12 48L15 48L15 49L17 49L17 48L16 48L16 47L17 47L17 46L18 46L18 47L19 47L19 48L18 48L18 49L19 49L19 48L20 48L20 49L22 49L22 48L23 48L23 49L24 49L24 48L25 48L25 49L28 49L28 47L27 47L27 48L26 48L26 47L22 47L22 48L20 48L20 47L19 47L19 45L21 45L21 46L23 46L23 45L27 45L27 46L29 46L29 45L30 45L30 47L29 47L29 49L32 49L32 48L33 48L33 47L34 47L34 48L35 48L35 47L36 47L36 49L37 49L37 48L38 48L38 49L42 49L42 48L39 48L39 47L36 47L36 46L34 46L34 45L32 45L32 41L33 41L33 44L37 44L37 45L38 45L38 44L39 44L39 45L40 45L40 46L41 46L41 45L42 45L42 47L43 47L43 49L44 49L44 47L46 47L46 49L49 49L49 48L47 48L47 47L49 47L49 46L48 46L48 45L47 45L47 47L46 47L46 44L45 44L45 43L47 43L47 44L49 44L49 41L48 41L48 40L49 40L49 39L48 39L48 38L49 38L49 35L48 35L48 33L49 33L49 29L48 29L48 28L49 28L49 27L48 27L48 28L46 28L46 27L45 27L45 23L46 23L46 25L47 25L47 23L46 23L46 21L44 21L44 19L43 19L43 21L42 21L42 20L41 20L41 19L42 19L42 18L41 18L41 17L43 17L43 16L44 16L44 17L45 17L45 19L46 19L46 18L48 18L48 19L47 19L47 20L49 20L49 15L48 15L48 14L49 14L49 12L48 12L48 10L47 10L47 11L46 11L46 9L47 9L47 8L44 8L44 9L42 9L42 8L41 8L41 6L40 6L40 8L39 8L39 5L38 5L38 4L37 4L37 3L38 3L38 2L39 2L39 4L40 4L40 3L41 3L41 0L40 0L40 1L38 1L38 2L36 2L36 4L35 4L35 1L37 1L37 0L35 0L35 1L34 1L34 3L33 3L33 1L32 1L32 3L33 3L33 4L32 4L32 5L30 5L30 2L31 2L31 0L30 0L30 2L29 2L29 0L27 0L27 1L28 1L28 2L29 2L29 5L28 5L28 7L27 7L27 2L26 2L26 1L25 1L25 0L24 0L24 1L25 1L25 2L23 2L23 1L22 1L22 0L21 0L21 1L17 1L17 2L14 2L14 1L15 1L15 0L14 0L14 1L13 1L13 0ZM12 1L12 2L11 2L11 3L13 3L13 1ZM21 1L21 3L22 3L22 4L21 4L21 7L22 7L22 4L24 4L24 3L22 3L22 1ZM17 2L17 3L15 3L15 5L14 5L14 4L13 4L13 7L14 7L14 6L15 6L15 8L11 8L11 7L12 7L12 4L11 4L11 7L10 7L10 6L9 6L9 7L10 7L10 13L9 13L9 17L8 17L8 16L7 16L7 15L8 15L8 12L9 12L9 11L8 11L8 12L7 12L7 11L5 11L5 10L4 10L4 12L5 12L5 13L6 13L6 14L7 14L7 15L5 15L5 16L4 16L4 17L5 17L5 18L4 18L4 19L2 19L2 18L1 18L1 19L2 19L2 20L4 20L4 21L3 21L3 22L7 22L7 21L5 21L5 20L9 20L9 21L8 21L8 22L10 22L10 21L11 21L11 20L12 20L12 19L13 19L13 21L12 21L12 22L11 22L11 25L12 25L12 22L14 22L14 23L13 23L13 24L14 24L14 25L13 25L13 26L14 26L14 28L13 28L13 29L10 29L10 30L9 30L9 27L10 27L10 28L12 28L12 26L11 26L11 27L10 27L10 25L9 25L9 27L8 27L8 30L7 30L7 29L6 29L6 30L5 30L5 31L4 31L4 32L5 32L5 34L7 34L7 35L6 35L6 36L7 36L7 35L9 35L9 33L10 33L10 34L11 34L11 35L12 35L12 36L13 36L13 33L15 33L15 34L14 34L14 35L15 35L15 34L16 34L16 35L17 35L17 36L15 36L15 38L14 38L14 37L12 37L12 39L11 39L11 37L10 37L10 39L11 39L11 40L9 40L9 41L11 41L11 43L15 43L15 44L14 44L14 46L13 46L13 44L11 44L11 45L10 45L10 46L9 46L9 48L10 48L10 46L11 46L11 45L12 45L12 46L13 46L13 47L14 47L14 46L15 46L15 47L16 47L16 44L17 44L17 45L19 45L19 44L20 44L20 42L21 42L21 41L22 41L22 39L21 39L21 38L22 38L22 37L24 37L24 38L23 38L23 40L24 40L24 39L25 39L25 40L26 40L26 39L27 39L27 41L29 41L29 42L28 42L28 43L30 43L30 45L31 45L31 41L32 41L32 39L31 39L31 40L30 40L30 39L29 39L29 36L30 36L30 38L32 38L32 37L33 37L33 40L34 40L34 39L35 39L35 40L36 40L36 41L35 41L35 43L36 43L36 41L37 41L37 42L38 42L38 43L39 43L39 44L40 44L40 43L39 43L39 42L40 42L40 40L41 40L41 39L42 39L42 40L44 40L44 39L45 39L45 38L44 38L44 39L43 39L43 36L44 36L44 37L45 37L45 36L46 36L46 34L45 34L45 33L48 33L48 29L47 29L47 30L46 30L46 29L45 29L45 28L44 28L44 30L43 30L43 27L42 27L42 28L41 28L41 27L40 27L40 25L39 25L39 21L38 21L38 20L36 20L36 21L35 21L35 19L36 19L36 18L35 18L35 19L33 19L33 18L31 18L31 17L32 17L32 16L30 16L30 15L29 15L29 16L28 16L28 13L29 13L29 11L30 11L30 12L31 12L31 13L30 13L30 14L31 14L31 15L33 15L33 17L38 17L38 18L40 18L40 17L38 17L38 16L39 16L39 15L40 15L40 16L43 16L43 15L41 15L41 13L42 13L42 14L44 14L44 15L45 15L45 14L44 14L44 13L46 13L46 12L44 12L44 10L45 10L45 9L44 9L44 10L43 10L43 11L42 11L42 9L41 9L41 8L40 8L40 10L39 10L39 8L38 8L38 5L37 5L37 8L36 8L36 9L33 9L33 8L35 8L35 7L36 7L36 6L35 6L35 4L33 4L33 5L32 5L32 6L31 6L31 7L30 7L30 6L29 6L29 7L30 7L30 8L29 8L29 9L28 9L28 8L27 8L27 9L26 9L26 10L24 10L24 9L22 9L22 10L21 10L21 9L20 9L20 10L21 10L21 11L17 11L17 9L18 9L18 10L19 10L19 8L20 8L20 6L19 6L19 5L20 5L20 4L19 4L19 5L18 5L18 2ZM19 2L19 3L20 3L20 2ZM25 2L25 3L26 3L26 2ZM9 4L9 5L10 5L10 4ZM15 5L15 6L16 6L16 7L17 7L17 8L19 8L19 6L18 6L18 7L17 7L17 5ZM23 5L23 8L26 8L26 5ZM33 5L33 6L32 6L32 7L31 7L31 8L30 8L30 11L31 11L31 9L32 9L32 12L33 12L33 13L36 13L36 14L35 14L35 16L36 16L36 15L37 15L37 13L38 13L38 15L39 15L39 13L38 13L38 10L37 10L37 11L36 11L36 10L33 10L33 9L32 9L32 7L33 7L33 6L34 6L34 7L35 7L35 6L34 6L34 5ZM24 6L24 7L25 7L25 6ZM15 8L15 9L14 9L14 11L16 11L16 12L15 12L15 13L10 13L10 15L13 15L13 14L17 14L17 13L16 13L16 12L17 12L17 11L16 11L16 10L15 10L15 9L16 9L16 8ZM37 8L37 9L38 9L38 8ZM48 8L48 9L49 9L49 8ZM2 9L2 10L3 10L3 9ZM11 9L11 10L12 10L12 12L13 12L13 9ZM22 10L22 13L26 13L26 15L25 15L25 14L24 14L24 15L23 15L23 14L22 14L22 15L21 15L21 17L24 17L24 15L25 15L25 16L26 16L26 17L27 17L27 18L24 18L24 19L23 19L23 18L20 18L20 19L19 19L19 17L20 17L20 14L21 14L21 12L20 12L20 14L19 14L19 12L18 12L18 15L19 15L19 17L18 17L18 16L17 16L17 15L16 15L16 17L15 17L15 16L13 16L13 17L15 17L15 18L13 18L13 19L15 19L15 20L14 20L14 21L15 21L15 23L14 23L14 24L15 24L15 26L16 26L16 27L15 27L15 28L14 28L14 29L15 29L15 31L13 31L13 30L11 30L11 31L10 31L10 32L12 32L12 33L11 33L11 34L12 34L12 33L13 33L13 32L15 32L15 33L16 33L16 32L19 32L19 33L21 33L21 34L20 34L20 38L19 38L19 40L21 40L21 39L20 39L20 38L21 38L21 37L22 37L22 36L21 36L21 34L22 34L22 35L23 35L23 36L25 36L25 38L26 38L26 36L27 36L27 37L28 37L28 36L27 36L27 34L28 34L28 35L29 35L29 34L28 34L28 33L30 33L30 35L31 35L31 33L32 33L32 36L33 36L33 37L34 37L34 36L33 36L33 35L34 35L34 34L33 34L33 33L32 33L32 29L34 29L34 31L33 31L33 32L34 32L34 33L35 33L35 32L37 32L37 33L36 33L36 37L35 37L35 39L37 39L37 38L36 38L36 37L38 37L38 39L39 39L39 38L40 38L40 36L43 36L43 35L42 35L42 32L43 32L43 33L45 33L45 31L43 31L43 30L42 30L42 29L40 29L40 30L38 30L38 28L37 28L37 29L36 29L36 31L35 31L35 28L33 28L33 26L34 26L34 25L33 25L33 26L30 26L30 25L31 25L31 24L35 24L35 26L37 26L37 24L38 24L38 22L37 22L37 21L36 21L36 24L35 24L35 22L34 22L34 21L32 21L32 19L28 19L28 18L29 18L29 17L27 17L27 13L26 13L26 12L25 12L25 11L24 11L24 10ZM2 11L2 12L1 12L1 13L3 13L3 14L2 14L2 15L1 15L1 16L3 16L3 14L4 14L4 13L3 13L3 11ZM23 11L23 12L24 12L24 11ZM27 11L27 12L28 12L28 11ZM33 11L33 12L36 12L36 11ZM40 11L40 13L41 13L41 11ZM6 12L6 13L7 13L7 12ZM42 12L42 13L43 13L43 12ZM47 12L47 13L48 13L48 12ZM22 15L22 16L23 16L23 15ZM46 15L46 16L47 16L47 17L48 17L48 15ZM5 16L5 17L7 17L7 16ZM10 16L10 17L11 17L11 19L12 19L12 17L11 17L11 16ZM6 18L6 19L7 19L7 18ZM8 18L8 19L9 19L9 20L10 20L10 18ZM16 18L16 20L18 20L18 24L17 24L17 25L16 25L16 26L18 26L18 24L19 24L19 25L20 25L20 24L19 24L19 19L17 19L17 18ZM20 19L20 20L21 20L21 21L20 21L20 22L21 22L21 24L22 24L22 22L23 22L23 19ZM25 19L25 20L24 20L24 22L27 22L27 21L28 21L28 22L29 22L29 23L28 23L28 25L27 25L27 26L29 26L29 23L30 23L30 21L31 21L31 23L32 23L32 21L31 21L31 20L29 20L29 21L28 21L28 19ZM25 20L25 21L26 21L26 20ZM40 20L40 22L42 22L42 21L41 21L41 20ZM16 21L16 23L15 23L15 24L16 24L16 23L17 23L17 21ZM21 21L21 22L22 22L22 21ZM43 21L43 22L44 22L44 21ZM5 23L5 26L8 26L8 23ZM23 23L23 26L26 26L26 23ZM41 23L41 26L44 26L44 23ZM48 23L48 26L49 26L49 23ZM3 24L3 25L4 25L4 24ZM6 24L6 25L7 25L7 24ZM24 24L24 25L25 25L25 24ZM42 24L42 25L43 25L43 24ZM21 25L21 26L22 26L22 25ZM38 25L38 27L39 27L39 25ZM6 27L6 28L7 28L7 27ZM16 27L16 28L15 28L15 29L16 29L16 30L19 30L19 32L20 32L20 30L21 30L21 33L22 33L22 34L23 34L23 33L22 33L22 31L23 31L23 32L24 32L24 33L25 33L25 36L26 36L26 33L25 33L25 32L27 32L27 30L28 30L28 32L29 32L29 30L30 30L30 33L31 33L31 29L32 29L32 28L31 28L31 29L29 29L29 28L30 28L30 27L29 27L29 28L25 28L25 27L24 27L24 28L22 28L22 29L21 29L21 27L19 27L19 28L18 28L18 29L17 29L17 27ZM24 28L24 29L25 29L25 28ZM22 29L22 30L23 30L23 29ZM6 30L6 31L7 31L7 32L6 32L6 33L7 33L7 34L8 34L8 33L7 33L7 32L9 32L9 31L7 31L7 30ZM25 30L25 31L24 31L24 32L25 32L25 31L26 31L26 30ZM41 30L41 31L40 31L40 32L38 32L38 31L37 31L37 32L38 32L38 33L37 33L37 34L38 34L38 35L37 35L37 36L39 36L39 35L40 35L40 34L39 34L39 33L40 33L40 32L42 32L42 30ZM34 31L34 32L35 32L35 31ZM17 33L17 34L18 34L18 36L17 36L17 38L15 38L15 40L14 40L14 41L13 41L13 39L12 39L12 40L11 40L11 41L13 41L13 42L15 42L15 43L17 43L17 41L18 41L18 43L19 43L19 42L20 42L20 41L18 41L18 40L16 40L16 39L17 39L17 38L18 38L18 36L19 36L19 34L18 34L18 33ZM44 34L44 35L45 35L45 34ZM47 35L47 38L48 38L48 35ZM1 37L1 38L2 38L2 37ZM41 37L41 38L42 38L42 37ZM5 38L5 39L7 39L7 38ZM28 39L28 40L29 40L29 39ZM46 39L46 40L48 40L48 39ZM38 40L38 41L39 41L39 40ZM23 41L23 44L26 44L26 41ZM41 41L41 44L44 44L44 41ZM45 41L45 42L46 42L46 41ZM24 42L24 43L25 43L25 42ZM42 42L42 43L43 43L43 42ZM47 42L47 43L48 43L48 42ZM21 43L21 45L22 45L22 43ZM27 44L27 45L28 45L28 44ZM43 46L43 47L44 47L44 46ZM31 47L31 48L32 48L32 47ZM0 0L0 7L7 7L7 0ZM1 1L1 6L6 6L6 1ZM2 2L2 5L5 5L5 2ZM42 0L42 7L49 7L49 0ZM43 1L43 6L48 6L48 1ZM44 2L44 5L47 5L47 2ZM0 42L0 49L7 49L7 42ZM1 43L1 48L6 48L6 43ZM2 44L2 47L5 47L5 44Z" fill="#000000"/></g></g></svg>
