<?xml version="1.0" encoding="UTF-8"?>
<svg xmlns="http://www.w3.org/2000/svg" version="1.1" width="512" height="512" viewBox="0 0 512 512"><rect x="0" y="0" width="512" height="512" fill="#ffffff"/><g transform="scale(10.449)"><g transform="translate(0,0)"><path fill-rule="evenodd" d="M10 0L10 2L9 2L9 1L8 1L8 2L9 2L9 3L8 3L8 4L9 4L9 3L10 3L10 4L11 4L11 6L10 6L10 7L9 7L9 5L8 5L8 7L9 7L9 8L6 8L6 9L5 9L5 8L0 8L0 9L1 9L1 11L4 11L4 9L5 9L5 10L6 10L6 11L5 11L5 13L7 13L7 14L3 14L3 13L2 13L2 12L0 12L0 13L2 13L2 14L0 14L0 15L2 15L2 17L0 17L0 18L1 18L1 19L0 19L0 21L1 21L1 20L2 20L2 22L0 22L0 24L1 24L1 25L0 25L0 26L1 26L1 27L0 27L0 30L2 30L2 29L3 29L3 30L4 30L4 31L7 31L7 30L5 30L5 28L6 28L6 29L7 29L7 28L8 28L8 29L9 29L9 28L10 28L10 30L11 30L11 31L12 31L12 29L15 29L15 30L16 30L16 29L15 29L15 25L17 25L17 27L18 27L18 25L19 25L19 24L17 24L17 22L18 22L18 23L20 23L20 22L19 22L19 21L22 21L22 22L21 22L21 24L20 24L20 25L21 25L21 26L22 26L22 27L20 27L20 26L19 26L19 29L18 29L18 28L17 28L17 29L18 29L18 30L17 30L17 32L16 32L16 31L14 31L14 32L15 32L15 33L13 33L13 32L12 32L12 34L8 34L8 35L9 35L9 36L6 36L6 35L7 35L7 34L5 34L5 33L8 33L8 32L3 32L3 31L2 31L2 33L1 33L1 32L0 32L0 33L1 33L1 34L2 34L2 33L4 33L4 34L3 34L3 35L5 35L5 36L3 36L3 37L2 37L2 36L1 36L1 37L2 37L2 38L1 38L1 40L0 40L0 41L3 41L3 40L4 40L4 39L2 39L2 38L3 38L3 37L9 37L9 36L10 36L10 35L11 35L11 36L12 36L12 37L10 37L10 38L8 38L8 39L7 39L7 38L5 38L5 39L7 39L7 40L6 40L6 41L7 41L7 40L10 40L10 39L11 39L11 41L12 41L12 42L13 42L13 43L12 43L12 44L11 44L11 45L10 45L10 43L11 43L11 42L9 42L9 41L8 41L8 43L9 43L9 44L8 44L8 49L12 49L12 48L13 48L13 45L15 45L15 46L16 46L16 45L15 45L15 44L16 44L16 43L15 43L15 41L12 41L12 39L11 39L11 38L12 38L12 37L13 37L13 38L14 38L14 37L13 37L13 36L14 36L14 35L13 35L13 34L15 34L15 35L16 35L16 34L15 34L15 33L17 33L17 34L18 34L18 35L17 35L17 36L18 36L18 37L16 37L16 36L15 36L15 37L16 37L16 38L15 38L15 39L14 39L14 40L15 40L15 39L16 39L16 41L19 41L19 42L20 42L20 43L19 43L19 44L20 44L20 45L21 45L21 48L20 48L20 47L19 47L19 45L18 45L18 44L17 44L17 45L18 45L18 46L17 46L17 47L18 47L18 48L16 48L16 47L15 47L15 49L19 49L19 48L20 48L20 49L21 49L21 48L25 48L25 49L28 49L28 48L29 48L29 49L31 49L31 48L33 48L33 49L40 49L40 46L41 46L41 45L43 45L43 46L42 46L42 48L41 48L41 49L42 49L42 48L43 48L43 49L44 49L44 48L43 48L43 46L45 46L45 48L46 48L46 49L49 49L49 47L48 47L48 48L46 48L46 45L47 45L47 44L48 44L48 45L49 45L49 42L48 42L48 43L47 43L47 42L46 42L46 41L48 41L48 40L49 40L49 38L48 38L48 36L49 36L49 34L48 34L48 33L47 33L47 32L48 32L48 31L49 31L49 30L48 30L48 31L47 31L47 32L46 32L46 30L45 30L45 32L44 32L44 31L43 31L43 30L42 30L42 29L45 29L45 28L46 28L46 29L47 29L47 28L48 28L48 29L49 29L49 26L48 26L48 25L49 25L49 24L48 24L48 25L47 25L47 26L46 26L46 25L45 25L45 23L49 23L49 22L46 22L46 21L47 21L47 20L46 20L46 18L45 18L45 17L42 17L42 18L41 18L41 20L40 20L40 17L41 17L41 16L40 16L40 17L39 17L39 14L40 14L40 15L42 15L42 16L46 16L46 17L48 17L48 16L49 16L49 14L47 14L47 15L48 15L48 16L46 16L46 13L48 13L48 12L49 12L49 10L48 10L48 8L47 8L47 10L48 10L48 11L47 11L47 12L46 12L46 13L45 13L45 15L44 15L44 14L43 14L43 12L45 12L45 10L46 10L46 8L45 8L45 9L44 9L44 8L43 8L43 9L42 9L42 8L41 8L41 6L40 6L40 7L39 7L39 5L38 5L38 4L37 4L37 3L36 3L36 4L37 4L37 6L36 6L36 7L37 7L37 6L38 6L38 7L39 7L39 8L40 8L40 9L39 9L39 11L38 11L38 9L37 9L37 8L35 8L35 5L34 5L34 4L35 4L35 3L34 3L34 2L30 2L30 1L32 1L32 0L30 0L30 1L29 1L29 0L27 0L27 1L24 1L24 2L23 2L23 1L22 1L22 0L21 0L21 1L20 1L20 2L21 2L21 3L19 3L19 2L18 2L18 0L17 0L17 3L18 3L18 7L17 7L17 4L16 4L16 2L15 2L15 4L16 4L16 5L15 5L15 6L14 6L14 4L13 4L13 3L14 3L14 2L13 2L13 1L15 1L15 0L12 0L12 2L11 2L11 0ZM36 0L36 1L35 1L35 2L39 2L39 4L40 4L40 3L41 3L41 0L40 0L40 1L37 1L37 0ZM21 1L21 2L22 2L22 1ZM28 1L28 2L29 2L29 1ZM26 2L26 3L27 3L27 5L30 5L30 6L29 6L29 8L28 8L28 6L27 6L27 8L28 8L28 9L29 9L29 11L31 11L31 10L30 10L30 9L32 9L32 10L35 10L35 9L34 9L34 5L33 5L33 3L27 3L27 2ZM11 3L11 4L12 4L12 5L13 5L13 4L12 4L12 3ZM20 4L20 5L19 5L19 8L20 8L20 6L21 6L21 8L22 8L22 6L21 6L21 4ZM30 4L30 5L31 5L31 4ZM23 5L23 8L26 8L26 5ZM32 5L32 7L31 7L31 6L30 6L30 8L33 8L33 5ZM11 6L11 7L12 7L12 6ZM13 6L13 8L12 8L12 9L13 9L13 10L14 10L14 9L15 9L15 13L13 13L13 12L14 12L14 11L12 11L12 13L10 13L10 12L7 12L7 11L8 11L8 10L9 10L9 9L10 9L10 10L11 10L11 9L10 9L10 8L9 8L9 9L6 9L6 10L7 10L7 11L6 11L6 12L7 12L7 13L9 13L9 14L8 14L8 15L6 15L6 16L7 16L7 17L5 17L5 15L3 15L3 16L4 16L4 17L3 17L3 18L2 18L2 19L3 19L3 22L2 22L2 23L1 23L1 24L2 24L2 23L3 23L3 22L4 22L4 18L7 18L7 19L6 19L6 20L7 20L7 19L9 19L9 18L8 18L8 17L15 17L15 18L12 18L12 19L11 19L11 18L10 18L10 20L9 20L9 21L10 21L10 22L9 22L9 25L10 25L10 22L11 22L11 23L12 23L12 26L11 26L11 27L10 27L10 28L11 28L11 29L12 29L12 28L14 28L14 27L13 27L13 26L14 26L14 25L15 25L15 24L16 24L16 23L15 23L15 24L14 24L14 22L16 22L16 21L18 21L18 20L17 20L17 19L18 19L18 18L19 18L19 20L21 20L21 19L20 19L20 18L22 18L22 20L23 20L23 22L27 22L27 24L28 24L28 26L27 26L27 27L29 27L29 28L27 28L27 29L28 29L28 31L27 31L27 30L26 30L26 29L25 29L25 28L24 28L24 27L22 27L22 28L21 28L21 29L19 29L19 33L18 33L18 34L19 34L19 33L20 33L20 36L23 36L23 35L24 35L24 33L25 33L25 35L27 35L27 37L29 37L29 38L28 38L28 39L27 39L27 38L26 38L26 39L25 39L25 40L26 40L26 39L27 39L27 40L28 40L28 43L29 43L29 44L28 44L28 46L27 46L27 45L23 45L23 46L22 46L22 47L23 47L23 46L25 46L25 48L28 48L28 46L29 46L29 48L30 48L30 47L31 47L31 46L32 46L32 47L34 47L34 48L35 48L35 47L36 47L36 48L39 48L39 47L38 47L38 46L40 46L40 45L39 45L39 44L40 44L40 41L38 41L38 40L41 40L41 39L42 39L42 40L44 40L44 38L45 38L45 39L46 39L46 40L45 40L45 41L46 41L46 40L47 40L47 37L46 37L46 38L45 38L45 37L43 37L43 36L45 36L45 33L46 33L46 32L45 32L45 33L44 33L44 32L43 32L43 31L42 31L42 30L41 30L41 27L40 27L40 26L39 26L39 25L38 25L38 24L40 24L40 22L42 22L42 21L43 21L43 22L44 22L44 21L45 21L45 20L41 20L41 21L40 21L40 20L39 20L39 19L38 19L38 18L39 18L39 17L38 17L38 15L36 15L36 14L39 14L39 13L40 13L40 14L42 14L42 15L43 15L43 14L42 14L42 13L40 13L40 12L43 12L43 11L44 11L44 9L43 9L43 10L42 10L42 9L40 9L40 12L38 12L38 11L36 11L36 12L35 12L35 11L33 11L33 12L30 12L30 13L29 13L29 12L28 12L28 11L26 11L26 10L27 10L27 9L26 9L26 10L25 10L25 11L24 11L24 9L22 9L22 10L23 10L23 11L22 11L22 12L21 12L21 13L19 13L19 12L20 12L20 10L21 10L21 9L18 9L18 8L17 8L17 9L15 9L15 8L16 8L16 6L15 6L15 7L14 7L14 6ZM24 6L24 7L25 7L25 6ZM2 9L2 10L3 10L3 9ZM16 10L16 12L17 12L17 13L18 13L18 14L17 14L17 15L18 15L18 17L23 17L23 16L24 16L24 19L23 19L23 20L24 20L24 21L25 21L25 20L26 20L26 21L27 21L27 20L29 20L29 19L30 19L30 22L29 22L29 21L28 21L28 24L29 24L29 23L30 23L30 26L29 26L29 27L30 27L30 26L31 26L31 24L33 24L33 25L32 25L32 26L33 26L33 27L31 27L31 28L30 28L30 30L29 30L29 31L28 31L28 32L27 32L27 35L28 35L28 36L29 36L29 35L31 35L31 36L30 36L30 38L31 38L31 36L34 36L34 37L33 37L33 38L32 38L32 39L28 39L28 40L30 40L30 42L29 42L29 43L30 43L30 44L33 44L33 46L34 46L34 47L35 47L35 46L34 46L34 43L35 43L35 42L34 42L34 41L37 41L37 42L36 42L36 43L37 43L37 44L35 44L35 45L37 45L37 44L39 44L39 42L38 42L38 41L37 41L37 40L35 40L35 39L36 39L36 38L37 38L37 36L34 36L34 35L37 35L37 32L39 32L39 33L40 33L40 34L38 34L38 35L41 35L41 37L42 37L42 35L44 35L44 34L43 34L43 33L41 33L41 32L39 32L39 31L41 31L41 30L40 30L40 28L39 28L39 26L38 26L38 28L35 28L35 26L36 26L36 27L37 27L37 24L36 24L36 22L34 22L34 21L33 21L33 23L32 23L32 22L31 22L31 20L35 20L35 19L37 19L37 16L35 16L35 17L36 17L36 18L34 18L34 19L30 19L30 18L32 18L32 17L31 17L31 16L30 16L30 14L31 14L31 15L32 15L32 16L34 16L34 15L35 15L35 14L34 14L34 13L35 13L35 12L33 12L33 13L30 13L30 14L28 14L28 13L27 13L27 12L26 12L26 11L25 11L25 12L24 12L24 13L27 13L27 14L26 14L26 15L25 15L25 16L24 16L24 15L23 15L23 14L22 14L22 13L23 13L23 12L22 12L22 13L21 13L21 16L19 16L19 15L18 15L18 14L19 14L19 13L18 13L18 12L17 12L17 11L18 11L18 10ZM41 10L41 11L42 11L42 10ZM36 12L36 13L37 13L37 12ZM12 13L12 14L13 14L13 13ZM15 13L15 14L16 14L16 13ZM10 14L10 15L8 15L8 16L13 16L13 15L11 15L11 14ZM27 14L27 16L28 16L28 17L26 17L26 18L25 18L25 19L24 19L24 20L25 20L25 19L26 19L26 18L28 18L28 19L29 19L29 18L30 18L30 17L29 17L29 16L28 16L28 14ZM32 14L32 15L34 15L34 14ZM14 15L14 16L16 16L16 15ZM22 15L22 16L23 16L23 15ZM28 17L28 18L29 18L29 17ZM15 18L15 19L16 19L16 18ZM42 18L42 19L45 19L45 18ZM48 18L48 19L49 19L49 18ZM13 19L13 20L10 20L10 21L11 21L11 22L12 22L12 21L13 21L13 22L14 22L14 21L13 21L13 20L14 20L14 19ZM15 20L15 21L16 21L16 20ZM36 20L36 21L38 21L38 20ZM48 20L48 21L49 21L49 20ZM6 21L6 22L8 22L8 21ZM39 21L39 22L37 22L37 23L39 23L39 22L40 22L40 21ZM30 22L30 23L31 23L31 22ZM5 23L5 26L8 26L8 23ZM23 23L23 26L26 26L26 23ZM33 23L33 24L34 24L34 26L35 26L35 23ZM41 23L41 26L44 26L44 23ZM6 24L6 25L7 25L7 24ZM24 24L24 25L25 25L25 24ZM42 24L42 25L43 25L43 24ZM2 25L2 28L1 28L1 29L2 29L2 28L3 28L3 29L4 29L4 28L5 28L5 27L4 27L4 25ZM47 26L47 27L46 27L46 28L47 28L47 27L48 27L48 26ZM6 27L6 28L7 28L7 27ZM33 27L33 28L31 28L31 29L32 29L32 31L34 31L34 32L37 32L37 31L38 31L38 30L39 30L39 28L38 28L38 29L36 29L36 31L34 31L34 30L35 30L35 29L34 29L34 30L33 30L33 28L34 28L34 27ZM42 27L42 28L43 28L43 27ZM23 28L23 29L24 29L24 32L26 32L26 30L25 30L25 29L24 29L24 28ZM21 29L21 30L20 30L20 33L21 33L21 34L22 34L22 35L23 35L23 34L22 34L22 33L21 33L21 32L22 32L22 31L21 31L21 30L22 30L22 29ZM8 30L8 31L9 31L9 30ZM30 30L30 31L29 31L29 32L28 32L28 33L31 33L31 35L34 35L34 34L35 34L35 33L34 33L34 34L33 34L33 32L30 32L30 31L31 31L31 30ZM41 34L41 35L42 35L42 34ZM47 34L47 35L46 35L46 36L47 36L47 35L48 35L48 34ZM12 35L12 36L13 36L13 35ZM24 36L24 37L22 37L22 38L21 38L21 37L19 37L19 40L24 40L24 37L25 37L25 36ZM38 36L38 37L39 37L39 38L38 38L38 39L41 39L41 38L40 38L40 36ZM34 37L34 38L33 38L33 39L34 39L34 38L36 38L36 37ZM17 38L17 40L18 40L18 38ZM20 38L20 39L21 39L21 38ZM42 38L42 39L43 39L43 38ZM31 40L31 42L30 42L30 43L33 43L33 42L32 42L32 41L33 41L33 40ZM20 41L20 42L21 42L21 43L22 43L22 42L21 42L21 41ZM23 41L23 44L26 44L26 41ZM41 41L41 44L44 44L44 41ZM17 42L17 43L18 43L18 42ZM24 42L24 43L25 43L25 42ZM37 42L37 43L38 43L38 42ZM42 42L42 43L43 43L43 42ZM13 43L13 44L14 44L14 43ZM46 43L46 44L45 44L45 45L46 45L46 44L47 44L47 43ZM21 44L21 45L22 45L22 44ZM11 45L11 46L12 46L12 45ZM30 45L30 46L31 46L31 45ZM9 46L9 47L10 47L10 48L12 48L12 47L10 47L10 46ZM36 46L36 47L37 47L37 46ZM0 0L0 7L7 7L7 0ZM1 1L1 6L6 6L6 1ZM2 2L2 5L5 5L5 2ZM42 0L42 7L49 7L49 0ZM43 1L43 6L48 6L48 1ZM44 2L44 5L47 5L47 2ZM0 42L0 49L7 49L7 42ZM1 43L1 48L6 48L6 43ZM2 44L2 47L5 47L5 44Z" fill="#000000"/></g></g></svg>
