<?xml version="1.0" encoding="UTF-8"?>
<svg xmlns="http://www.w3.org/2000/svg" version="1.1" width="512" height="512" viewBox="0 0 512 512"><rect x="0" y="0" width="512" height="512" fill="#ffffff"/><g transform="scale(10.449)"><g transform="translate(0,0)"><path fill-rule="evenodd" d="M10 0L10 1L9 1L9 2L8 2L8 3L10 3L10 1L12 1L12 3L11 3L11 4L9 4L9 6L8 6L8 8L4 8L4 9L3 9L3 8L0 8L0 9L1 9L1 11L0 11L0 13L1 13L1 11L2 11L2 10L3 10L3 12L4 12L4 13L3 13L3 14L2 14L2 15L1 15L1 14L0 14L0 17L1 17L1 16L3 16L3 17L2 17L2 18L1 18L1 19L0 19L0 20L1 20L1 23L0 23L0 26L2 26L2 28L3 28L3 29L4 29L4 30L2 30L2 31L4 31L4 30L5 30L5 33L4 33L4 34L3 34L3 33L2 33L2 32L1 32L1 33L0 33L0 34L1 34L1 35L0 35L0 36L1 36L1 35L2 35L2 36L4 36L4 35L5 35L5 36L6 36L6 37L7 37L7 38L5 38L5 37L2 37L2 38L1 38L1 40L0 40L0 41L3 41L3 40L4 40L4 39L2 39L2 38L5 38L5 39L7 39L7 40L6 40L6 41L7 41L7 40L8 40L8 45L9 45L9 44L10 44L10 45L11 45L11 44L12 44L12 46L13 46L13 44L12 44L12 43L10 43L10 41L11 41L11 42L12 42L12 39L13 39L13 40L14 40L14 41L13 41L13 42L14 42L14 43L15 43L15 44L14 44L14 45L15 45L15 44L16 44L16 46L17 46L17 47L16 47L16 48L15 48L15 46L14 46L14 47L12 47L12 48L10 48L10 47L11 47L11 46L8 46L8 49L9 49L9 48L10 48L10 49L12 49L12 48L14 48L14 49L16 49L16 48L17 48L17 49L19 49L19 48L20 48L20 47L19 47L19 46L17 46L17 44L16 44L16 43L17 43L17 42L16 42L16 43L15 43L15 40L16 40L16 39L17 39L17 41L18 41L18 43L19 43L19 44L18 44L18 45L19 45L19 44L20 44L20 43L19 43L19 40L21 40L21 42L22 42L22 43L21 43L21 44L22 44L22 45L21 45L21 48L22 48L22 49L24 49L24 48L25 48L25 49L26 49L26 47L25 47L25 45L26 45L26 46L28 46L28 47L29 47L29 48L27 48L27 49L29 49L29 48L30 48L30 49L31 49L31 47L29 47L29 46L30 46L30 41L31 41L31 42L34 42L34 41L35 41L35 42L36 42L36 43L35 43L35 44L36 44L36 45L35 45L35 48L36 48L36 49L37 49L37 47L36 47L36 45L37 45L37 46L38 46L38 45L37 45L37 44L38 44L38 43L37 43L37 42L38 42L38 41L37 41L37 40L38 40L38 39L37 39L37 38L38 38L38 37L39 37L39 36L37 36L37 34L38 34L38 33L37 33L37 32L39 32L39 31L38 31L38 27L42 27L42 28L43 28L43 29L41 29L41 28L40 28L40 29L39 29L39 30L40 30L40 29L41 29L41 30L42 30L42 32L40 32L40 33L39 33L39 34L41 34L41 33L42 33L42 37L41 37L41 36L40 36L40 38L39 38L39 39L40 39L40 38L42 38L42 40L40 40L40 43L39 43L39 44L40 44L40 45L39 45L39 46L40 46L40 47L38 47L38 49L39 49L39 48L40 48L40 49L42 49L42 47L43 47L43 49L46 49L46 47L47 47L47 49L49 49L49 48L48 48L48 47L47 47L47 46L49 46L49 44L48 44L48 43L49 43L49 41L48 41L48 40L49 40L49 33L48 33L48 35L47 35L47 36L48 36L48 38L47 38L47 37L45 37L45 38L44 38L44 36L43 36L43 34L44 34L44 35L45 35L45 36L46 36L46 35L45 35L45 34L47 34L47 33L46 33L46 31L47 31L47 30L48 30L48 32L49 32L49 28L48 28L48 29L47 29L47 30L46 30L46 27L45 27L45 26L46 26L46 23L47 23L47 24L48 24L48 25L47 25L47 26L48 26L48 27L49 27L49 21L48 21L48 20L47 20L47 21L46 21L46 22L45 22L45 20L46 20L46 19L47 19L47 18L46 18L46 19L44 19L44 21L43 21L43 19L42 19L42 17L43 17L43 18L45 18L45 16L46 16L46 15L47 15L47 17L48 17L48 19L49 19L49 17L48 17L48 15L49 15L49 12L48 12L48 13L47 13L47 14L46 14L46 12L45 12L45 11L47 11L47 10L46 10L46 9L47 9L47 8L46 8L46 9L45 9L45 10L43 10L43 11L44 11L44 13L43 13L43 12L42 12L42 9L43 9L43 8L41 8L41 10L40 10L40 8L38 8L38 7L39 7L39 5L38 5L38 3L37 3L37 5L38 5L38 7L37 7L37 6L36 6L36 5L35 5L35 4L36 4L36 2L35 2L35 0L30 0L30 1L29 1L29 0L28 0L28 1L27 1L27 0L26 0L26 2L27 2L27 3L28 3L28 2L29 2L29 4L28 4L28 9L29 9L29 10L27 10L27 11L25 11L25 10L24 10L24 9L27 9L27 4L24 4L24 2L25 2L25 1L23 1L23 0L22 0L22 1L21 1L21 0L20 0L20 1L19 1L19 2L22 2L22 3L20 3L20 5L19 5L19 6L18 6L18 4L16 4L16 5L17 5L17 6L16 6L16 7L15 7L15 3L17 3L17 2L18 2L18 0L13 0L13 1L12 1L12 0ZM36 0L36 1L38 1L38 2L39 2L39 4L40 4L40 3L41 3L41 0L40 0L40 1L38 1L38 0ZM13 1L13 4L11 4L11 7L12 7L12 8L14 8L14 3L15 3L15 2L14 2L14 1ZM16 1L16 2L17 2L17 1ZM32 1L32 5L31 5L31 9L30 9L30 11L29 11L29 12L30 12L30 16L31 16L31 17L30 17L30 20L29 20L29 21L28 21L28 22L27 22L27 19L29 19L29 18L27 18L27 17L28 17L28 15L29 15L29 14L28 14L28 13L27 13L27 12L25 12L25 13L26 13L26 15L25 15L25 16L26 16L26 17L24 17L24 14L23 14L23 13L24 13L24 10L23 10L23 9L22 9L22 10L21 10L21 8L22 8L22 6L21 6L21 5L22 5L22 4L23 4L23 3L22 3L22 4L21 4L21 5L20 5L20 6L19 6L19 7L18 7L18 6L17 6L17 7L16 7L16 8L15 8L15 10L18 10L18 11L14 11L14 10L12 10L12 9L11 9L11 8L10 8L10 9L11 9L11 11L13 11L13 12L12 12L12 13L11 13L11 12L10 12L10 11L8 11L8 9L6 9L6 10L7 10L7 11L5 11L5 10L4 10L4 11L5 11L5 12L7 12L7 13L5 13L5 14L7 14L7 15L6 15L6 16L4 16L4 17L3 17L3 19L4 19L4 22L2 22L2 23L1 23L1 24L2 24L2 26L3 26L3 28L4 28L4 29L5 29L5 27L4 27L4 26L3 26L3 23L4 23L4 22L5 22L5 19L6 19L6 20L7 20L7 19L8 19L8 18L7 18L7 17L6 17L6 16L10 16L10 17L9 17L9 20L10 20L10 21L11 21L11 22L12 22L12 20L11 20L11 19L12 19L12 18L14 18L14 19L15 19L15 20L14 20L14 22L15 22L15 20L17 20L17 19L16 19L16 18L18 18L18 19L19 19L19 20L18 20L18 22L17 22L17 21L16 21L16 22L17 22L17 23L16 23L16 25L15 25L15 26L17 26L17 27L16 27L16 28L15 28L15 27L14 27L14 26L12 26L12 27L10 27L10 25L14 25L14 24L15 24L15 23L14 23L14 24L12 24L12 23L11 23L11 24L10 24L10 23L9 23L9 24L10 24L10 25L9 25L9 27L6 27L6 28L7 28L7 29L6 29L6 30L7 30L7 31L6 31L6 32L7 32L7 31L8 31L8 33L9 33L9 34L8 34L8 36L7 36L7 35L6 35L6 34L7 34L7 33L6 33L6 34L5 34L5 35L6 35L6 36L7 36L7 37L8 37L8 38L7 38L7 39L8 39L8 40L9 40L9 39L10 39L10 40L11 40L11 38L9 38L9 37L11 37L11 36L12 36L12 35L13 35L13 34L14 34L14 35L15 35L15 36L14 36L14 38L13 38L13 37L12 37L12 38L13 38L13 39L15 39L15 36L17 36L17 35L16 35L16 34L17 34L17 33L18 33L18 32L20 32L20 33L19 33L19 34L18 34L18 35L19 35L19 36L18 36L18 38L17 38L17 37L16 37L16 38L17 38L17 39L18 39L18 38L21 38L21 36L20 36L20 35L21 35L21 31L20 31L20 30L21 30L21 29L22 29L22 30L23 30L23 31L22 31L22 32L23 32L23 33L22 33L22 34L25 34L25 35L26 35L26 34L27 34L27 35L28 35L28 34L29 34L29 33L28 33L28 30L27 30L27 33L26 33L26 32L25 32L25 31L24 31L24 30L26 30L26 29L27 29L27 28L28 28L28 26L29 26L29 29L30 29L30 31L29 31L29 32L30 32L30 31L31 31L31 33L30 33L30 36L29 36L29 37L28 37L28 36L26 36L26 37L28 37L28 39L24 39L24 38L25 38L25 36L24 36L24 38L23 38L23 37L22 37L22 38L23 38L23 39L21 39L21 40L23 40L23 39L24 39L24 40L27 40L27 41L28 41L28 42L29 42L29 41L28 41L28 39L29 39L29 37L30 37L30 40L31 40L31 41L32 41L32 40L31 40L31 39L32 39L32 34L31 34L31 33L32 33L32 30L31 30L31 29L32 29L32 26L31 26L31 25L32 25L32 23L31 23L31 21L32 21L32 18L37 18L37 17L38 17L38 20L37 20L37 21L38 21L38 24L37 24L37 26L39 26L39 25L40 25L40 24L39 24L39 23L40 23L40 22L41 22L41 21L42 21L42 22L43 22L43 21L42 21L42 20L41 20L41 19L40 19L40 18L41 18L41 17L42 17L42 16L41 16L41 15L39 15L39 13L38 13L38 16L37 16L37 17L34 17L34 16L35 16L35 13L36 13L36 12L35 12L35 11L36 11L36 10L37 10L37 9L38 9L38 11L40 11L40 14L41 14L41 13L42 13L42 15L43 15L43 17L44 17L44 14L45 14L45 13L44 13L44 14L43 14L43 13L42 13L42 12L41 12L41 11L40 11L40 10L39 10L39 9L38 9L38 8L37 8L37 9L33 9L33 11L34 11L34 12L33 12L33 13L32 13L32 10L31 10L31 9L32 9L32 6L33 6L33 8L36 8L36 6L35 6L35 7L34 7L34 6L33 6L33 5L34 5L34 4L33 4L33 3L35 3L35 2L33 2L33 1ZM29 4L29 8L30 8L30 4ZM12 5L12 7L13 7L13 5ZM23 5L23 8L26 8L26 5ZM9 6L9 7L10 7L10 6ZM20 6L20 7L19 7L19 8L18 8L18 10L20 10L20 8L21 8L21 6ZM24 6L24 7L25 7L25 6ZM40 6L40 7L41 7L41 6ZM48 9L48 11L49 11L49 9ZM19 11L19 12L18 12L18 13L17 13L17 12L16 12L16 14L17 14L17 15L16 15L16 16L18 16L18 18L19 18L19 19L20 19L20 20L19 20L19 22L18 22L18 23L17 23L17 24L18 24L18 25L17 25L17 26L18 26L18 27L21 27L21 28L22 28L22 29L23 29L23 30L24 30L24 28L22 28L22 27L26 27L26 28L25 28L25 29L26 29L26 28L27 28L27 22L26 22L26 21L25 21L25 20L26 20L26 19L25 19L25 18L24 18L24 17L23 17L23 16L21 16L21 15L19 15L19 14L20 14L20 11ZM21 11L21 14L22 14L22 15L23 15L23 14L22 14L22 11ZM8 12L8 13L7 13L7 14L8 14L8 15L9 15L9 14L10 14L10 15L11 15L11 16L12 16L12 17L14 17L14 18L15 18L15 16L12 16L12 15L13 15L13 14L12 14L12 15L11 15L11 14L10 14L10 12ZM14 12L14 13L15 13L15 12ZM18 13L18 14L19 14L19 13ZM33 13L33 15L32 15L32 17L31 17L31 18L32 18L32 17L33 17L33 15L34 15L34 13ZM3 14L3 15L4 15L4 14ZM14 14L14 15L15 15L15 14ZM27 14L27 15L28 15L28 14ZM36 14L36 15L37 15L37 14ZM19 16L19 17L20 17L20 18L21 18L21 16ZM38 16L38 17L39 17L39 18L40 18L40 16ZM5 17L5 18L4 18L4 19L5 19L5 18L6 18L6 19L7 19L7 18L6 18L6 17ZM22 17L22 18L23 18L23 19L22 19L22 21L24 21L24 22L25 22L25 21L24 21L24 20L23 20L23 19L24 19L24 18L23 18L23 17ZM33 19L33 20L34 20L34 23L33 23L33 24L34 24L34 25L33 25L33 27L36 27L36 26L35 26L35 24L34 24L34 23L35 23L35 22L36 22L36 23L37 23L37 22L36 22L36 21L35 21L35 19ZM39 19L39 20L38 20L38 21L39 21L39 22L40 22L40 19ZM20 20L20 22L19 22L19 23L20 23L20 24L19 24L19 26L21 26L21 25L22 25L22 24L21 24L21 20ZM6 21L6 22L8 22L8 21ZM29 21L29 22L28 22L28 25L29 25L29 26L30 26L30 25L31 25L31 24L30 24L30 21ZM5 23L5 26L8 26L8 23ZM23 23L23 26L26 26L26 23ZM41 23L41 26L44 26L44 23ZM6 24L6 25L7 25L7 24ZM24 24L24 25L25 25L25 24ZM38 24L38 25L39 25L39 24ZM42 24L42 25L43 25L43 24ZM9 27L9 30L8 30L8 31L11 31L11 30L10 30L10 27ZM12 27L12 28L13 28L13 27ZM43 27L43 28L44 28L44 30L45 30L45 28L44 28L44 27ZM14 28L14 29L15 29L15 28ZM16 28L16 30L17 30L17 31L16 31L16 32L18 32L18 30L17 30L17 28ZM18 28L18 29L19 29L19 30L20 30L20 29L19 29L19 28ZM30 28L30 29L31 29L31 28ZM33 28L33 29L34 29L34 30L33 30L33 31L34 31L34 32L36 32L36 31L37 31L37 29L36 29L36 31L35 31L35 29L34 29L34 28ZM12 30L12 32L11 32L11 33L10 33L10 32L9 32L9 33L10 33L10 34L9 34L9 36L10 36L10 35L11 35L11 34L12 34L12 32L14 32L14 34L15 34L15 30L14 30L14 31L13 31L13 30ZM23 31L23 32L24 32L24 31ZM44 31L44 32L43 32L43 33L44 33L44 34L45 34L45 31ZM25 33L25 34L26 34L26 33ZM33 33L33 34L34 34L34 35L33 35L33 37L34 37L34 39L33 39L33 41L34 41L34 40L35 40L35 39L36 39L36 38L35 38L35 36L34 36L34 35L36 35L36 33ZM2 34L2 35L3 35L3 34ZM22 35L22 36L23 36L23 35ZM30 36L30 37L31 37L31 36ZM8 38L8 39L9 39L9 38ZM45 38L45 39L44 39L44 40L47 40L47 39L46 39L46 38ZM23 41L23 44L26 44L26 41ZM41 41L41 44L44 44L44 41ZM46 41L46 42L45 42L45 43L46 43L46 45L45 45L45 47L44 47L44 45L42 45L42 46L43 46L43 47L44 47L44 48L45 48L45 47L46 47L46 46L47 46L47 45L48 45L48 44L47 44L47 43L48 43L48 41ZM24 42L24 43L25 43L25 42ZM42 42L42 43L43 43L43 42ZM32 43L32 45L31 45L31 46L32 46L32 45L33 45L33 47L32 47L32 49L33 49L33 48L34 48L34 44L33 44L33 43ZM27 44L27 45L28 45L28 44ZM22 46L22 48L24 48L24 47L23 47L23 46ZM17 47L17 48L19 48L19 47ZM40 47L40 48L41 48L41 47ZM0 0L0 7L7 7L7 0ZM1 1L1 6L6 6L6 1ZM2 2L2 5L5 5L5 2ZM42 0L42 7L49 7L49 0ZM43 1L43 6L48 6L48 1ZM44 2L44 5L47 5L47 2ZM0 42L0 49L7 49L7 42ZM1 43L1 48L6 48L6 43ZM2 44L2 47L5 47L5 44Z" fill="#000000"/></g></g></svg>
