<?xml version="1.0" encoding="UTF-8"?>
<svg xmlns="http://www.w3.org/2000/svg" version="1.1" width="512" height="512" viewBox="0 0 512 512"><rect x="0" y="0" width="512" height="512" fill="#ffffff"/><g transform="scale(13.838)"><g transform="translate(0,0)"><path fill-rule="evenodd" d="M10 0L10 2L11 2L11 0ZM12 0L12 1L13 1L13 0ZM16 0L16 1L15 1L15 2L14 2L14 3L13 3L13 2L12 2L12 4L13 4L13 5L11 5L11 6L10 6L10 4L11 4L11 3L8 3L8 4L9 4L9 5L8 5L8 7L9 7L9 8L6 8L6 9L9 9L9 10L5 10L5 8L0 8L0 9L3 9L3 11L2 11L2 10L0 10L0 11L2 11L2 12L1 12L1 13L0 13L0 14L1 14L1 15L0 15L0 16L2 16L2 17L3 17L3 19L2 19L2 18L1 18L1 17L0 17L0 18L1 18L1 19L0 19L0 29L1 29L1 23L3 23L3 24L2 24L2 25L3 25L3 24L4 24L4 25L5 25L5 23L7 23L7 24L6 24L6 25L7 25L7 26L4 26L4 27L3 27L3 29L5 29L5 28L6 28L6 29L8 29L8 31L9 31L9 29L10 29L10 31L11 31L11 33L12 33L12 34L13 34L13 35L12 35L12 37L13 37L13 36L14 36L14 37L16 37L16 36L17 36L17 37L18 37L18 36L19 36L19 37L21 37L21 36L23 36L23 35L22 35L22 34L24 34L24 33L28 33L28 34L27 34L27 35L26 35L26 34L25 34L25 35L26 35L26 36L24 36L24 37L27 37L27 35L28 35L28 36L29 36L29 37L32 37L32 36L31 36L31 35L28 35L28 34L34 34L34 33L35 33L35 35L36 35L36 36L34 36L34 35L33 35L33 36L34 36L34 37L37 37L37 33L35 33L35 32L34 32L34 31L36 31L36 32L37 32L37 30L35 30L35 28L34 28L34 27L33 27L33 26L32 26L32 27L30 27L30 26L27 26L27 24L29 24L29 25L31 25L31 24L32 24L32 25L33 25L33 24L34 24L34 25L35 25L35 27L36 27L36 28L37 28L37 26L36 26L36 25L37 25L37 22L36 22L36 21L37 21L37 18L36 18L36 17L37 17L37 14L36 14L36 13L35 13L35 12L34 12L34 11L35 11L35 9L36 9L36 8L35 8L35 9L34 9L34 8L33 8L33 9L34 9L34 11L33 11L33 12L31 12L31 11L32 11L32 10L30 10L30 8L29 8L29 5L27 5L27 3L29 3L29 0L28 0L28 1L27 1L27 0L26 0L26 1L27 1L27 3L25 3L25 2L23 2L23 5L22 5L22 7L21 7L21 5L20 5L20 3L22 3L22 2L19 2L19 1L20 1L20 0L19 0L19 1L18 1L18 2L19 2L19 3L17 3L17 4L16 4L16 3L15 3L15 2L17 2L17 0ZM22 0L22 1L24 1L24 0ZM8 1L8 2L9 2L9 1ZM14 4L14 5L16 5L16 4ZM17 4L17 7L16 7L16 6L15 6L15 7L14 7L14 6L13 6L13 7L12 7L12 6L11 6L11 7L12 7L12 9L11 9L11 8L10 8L10 9L11 9L11 12L10 12L10 13L9 13L9 12L8 12L8 11L6 11L6 12L7 12L7 13L6 13L6 14L4 14L4 15L3 15L3 14L2 14L2 13L4 13L4 12L2 12L2 13L1 13L1 14L2 14L2 15L3 15L3 16L4 16L4 18L5 18L5 19L6 19L6 20L4 20L4 19L3 19L3 21L2 21L2 19L1 19L1 21L2 21L2 22L4 22L4 21L6 21L6 22L7 22L7 21L6 21L6 20L8 20L8 21L9 21L9 22L8 22L8 24L7 24L7 25L8 25L8 26L9 26L9 27L11 27L11 30L13 30L13 31L12 31L12 33L15 33L15 34L16 34L16 33L15 33L15 32L18 32L18 33L17 33L17 36L18 36L18 35L19 35L19 36L21 36L21 33L23 33L23 32L26 32L26 31L25 31L25 29L24 29L24 28L26 28L26 30L27 30L27 32L28 32L28 30L27 30L27 29L28 29L28 28L30 28L30 27L27 27L27 28L26 28L26 27L25 27L25 26L26 26L26 25L25 25L25 24L26 24L26 22L28 22L28 21L24 21L24 22L22 22L22 24L21 24L21 23L20 23L20 22L21 22L21 21L22 21L22 20L26 20L26 19L27 19L27 20L29 20L29 19L27 19L27 18L28 18L28 17L29 17L29 18L30 18L30 20L33 20L33 21L30 21L30 22L29 22L29 24L30 24L30 22L31 22L31 23L32 23L32 22L33 22L33 21L34 21L34 20L36 20L36 19L35 19L35 17L36 17L36 14L35 14L35 15L34 15L34 13L30 13L30 12L29 12L29 13L30 13L30 14L29 14L29 15L28 15L28 16L27 16L27 15L25 15L25 14L26 14L26 13L24 13L24 12L23 12L23 11L24 11L24 10L23 10L23 9L22 9L22 8L21 8L21 7L20 7L20 5L19 5L19 4ZM24 4L24 5L23 5L23 7L24 7L24 8L27 8L27 7L28 7L28 6L27 6L27 5L26 5L26 4ZM18 5L18 7L19 7L19 8L15 8L15 9L16 9L16 10L14 10L14 9L12 9L12 10L13 10L13 11L12 11L12 13L13 13L13 12L14 12L14 13L15 13L15 12L14 12L14 11L16 11L16 12L17 12L17 14L15 14L15 15L14 15L14 16L15 16L15 17L12 17L12 15L13 15L13 14L11 14L11 13L10 13L10 15L9 15L9 14L8 14L8 13L7 13L7 14L6 14L6 15L4 15L4 16L6 16L6 17L8 17L8 18L6 18L6 19L8 19L8 18L9 18L9 20L10 20L10 25L12 25L12 26L13 26L13 27L12 27L12 29L13 29L13 28L14 28L14 29L15 29L15 28L14 28L14 27L16 27L16 28L17 28L17 30L15 30L15 31L14 31L14 32L15 32L15 31L18 31L18 30L20 30L20 33L18 33L18 34L20 34L20 33L21 33L21 32L23 32L23 30L24 30L24 29L23 29L23 30L22 30L22 31L21 31L21 30L20 30L20 28L23 28L23 27L19 27L19 26L20 26L20 25L21 25L21 26L24 26L24 24L25 24L25 22L24 22L24 24L22 24L22 25L21 25L21 24L20 24L20 25L18 25L18 24L19 24L19 22L20 22L20 21L21 21L21 20L22 20L22 19L23 19L23 18L24 18L24 19L25 19L25 18L26 18L26 17L27 17L27 16L25 16L25 15L24 15L24 17L23 17L23 16L22 16L22 15L23 15L23 14L24 14L24 13L23 13L23 12L22 12L22 10L21 10L21 11L19 11L19 10L20 10L20 9L21 9L21 8L20 8L20 7L19 7L19 5ZM24 5L24 7L25 7L25 6L26 6L26 7L27 7L27 6L26 6L26 5ZM9 6L9 7L10 7L10 6ZM19 8L19 9L17 9L17 10L19 10L19 9L20 9L20 8ZM28 8L28 9L25 9L25 12L26 12L26 10L28 10L28 11L30 11L30 10L28 10L28 9L29 9L29 8ZM31 8L31 9L32 9L32 8ZM9 10L9 11L10 11L10 10ZM36 10L36 11L37 11L37 10ZM17 11L17 12L18 12L18 11ZM20 12L20 14L18 14L18 15L15 15L15 16L18 16L18 17L15 17L15 18L17 18L17 20L18 20L18 21L14 21L14 20L16 20L16 19L14 19L14 20L13 20L13 21L12 21L12 19L13 19L13 18L12 18L12 17L10 17L10 16L9 16L9 15L8 15L8 14L7 14L7 15L6 15L6 16L8 16L8 17L10 17L10 18L11 18L11 19L10 19L10 20L11 20L11 22L13 22L13 23L12 23L12 25L15 25L15 26L18 26L18 25L15 25L15 24L18 24L18 23L17 23L17 22L19 22L19 21L20 21L20 19L21 19L21 17L22 17L22 16L21 16L21 17L20 17L20 16L19 16L19 15L21 15L21 13L22 13L22 12ZM27 13L27 14L28 14L28 13ZM30 14L30 15L31 15L31 16L30 16L30 17L31 17L31 16L32 16L32 17L33 17L33 18L31 18L31 19L33 19L33 20L34 20L34 19L33 19L33 18L34 18L34 17L35 17L35 16L34 16L34 15L33 15L33 14L32 14L32 15L31 15L31 14ZM33 16L33 17L34 17L34 16ZM19 17L19 18L18 18L18 19L19 19L19 18L20 18L20 17ZM24 17L24 18L25 18L25 17ZM15 22L15 23L14 23L14 24L15 24L15 23L16 23L16 22ZM34 22L34 24L36 24L36 23L35 23L35 22ZM6 27L6 28L7 28L7 27ZM17 27L17 28L18 28L18 29L19 29L19 27ZM32 27L32 28L33 28L33 27ZM8 28L8 29L9 29L9 28ZM29 29L29 32L32 32L32 29ZM33 29L33 30L34 30L34 29ZM30 30L30 31L31 31L31 30ZM8 32L8 37L9 37L9 36L10 36L10 35L11 35L11 34L10 34L10 33L9 33L9 32ZM33 32L33 33L34 33L34 32ZM9 34L9 35L10 35L10 34ZM14 35L14 36L15 36L15 35ZM0 0L0 7L7 7L7 0ZM1 1L1 6L6 6L6 1ZM2 2L2 5L5 5L5 2ZM30 0L30 7L37 7L37 0ZM31 1L31 6L36 6L36 1ZM32 2L32 5L35 5L35 2ZM0 30L0 37L7 37L7 30ZM1 31L1 36L6 36L6 31ZM2 32L2 35L5 35L5 32Z" fill="#000000"/></g></g></svg>
