<?xml version="1.0" encoding="UTF-8"?>
<svg xmlns="http://www.w3.org/2000/svg" version="1.1" width="512" height="512" viewBox="0 0 512 512"><rect x="0" y="0" width="512" height="512" fill="#ffffff"/><g transform="scale(13.838)"><g transform="translate(0,0)"><path fill-rule="evenodd" d="M9 0L9 1L8 1L8 2L9 2L9 3L8 3L8 4L10 4L10 7L11 7L11 4L12 4L12 5L13 5L13 4L16 4L16 5L15 5L15 6L14 6L14 8L13 8L13 6L12 6L12 9L13 9L13 10L10 10L10 9L11 9L11 8L6 8L6 9L5 9L5 8L0 8L0 9L3 9L3 10L1 10L1 11L0 11L0 15L3 15L3 16L4 16L4 17L2 17L2 18L1 18L1 16L0 16L0 18L1 18L1 19L0 19L0 20L1 20L1 19L2 19L2 18L3 18L3 19L4 19L4 20L2 20L2 21L1 21L1 22L0 22L0 23L1 23L1 22L3 22L3 23L2 23L2 24L1 24L1 25L0 25L0 29L1 29L1 26L2 26L2 25L5 25L5 26L6 26L6 27L7 27L7 26L6 26L6 25L7 25L7 24L6 24L6 25L5 25L5 22L6 22L6 23L7 23L7 22L8 22L8 26L9 26L9 28L10 28L10 29L8 29L8 28L5 28L5 27L4 27L4 26L3 26L3 27L2 27L2 28L3 28L3 27L4 27L4 29L8 29L8 31L11 31L11 30L10 30L10 29L12 29L12 30L13 30L13 31L12 31L12 33L13 33L13 32L14 32L14 33L16 33L16 34L15 34L15 35L14 35L14 36L15 36L15 37L16 37L16 36L17 36L17 37L18 37L18 36L17 36L17 35L18 35L18 34L20 34L20 35L21 35L21 36L20 36L20 37L21 37L21 36L23 36L23 34L24 34L24 33L28 33L28 34L27 34L27 35L26 35L26 34L25 34L25 35L26 35L26 36L24 36L24 37L27 37L27 35L28 35L28 36L29 36L29 37L32 37L32 36L31 36L31 35L28 35L28 34L34 34L34 33L35 33L35 35L36 35L36 36L34 36L34 35L33 35L33 36L34 36L34 37L37 37L37 33L35 33L35 32L37 32L37 30L35 30L35 28L34 28L34 27L33 27L33 26L32 26L32 27L30 27L30 26L27 26L27 24L29 24L29 25L31 25L31 24L32 24L32 25L33 25L33 24L34 24L34 25L35 25L35 27L36 27L36 28L37 28L37 26L36 26L36 25L37 25L37 22L36 22L36 21L37 21L37 18L36 18L36 17L37 17L37 14L36 14L36 13L35 13L35 12L34 12L34 11L35 11L35 9L36 9L36 8L35 8L35 9L34 9L34 8L33 8L33 9L34 9L34 11L33 11L33 12L31 12L31 11L32 11L32 10L30 10L30 8L29 8L29 5L27 5L27 3L29 3L29 0L28 0L28 1L27 1L27 0L26 0L26 1L27 1L27 3L24 3L24 2L25 2L25 1L24 1L24 0L23 0L23 1L24 1L24 2L21 2L21 1L20 1L20 0L16 0L16 1L15 1L15 2L14 2L14 1L11 1L11 2L10 2L10 0ZM18 1L18 2L15 2L15 3L18 3L18 2L20 2L20 3L19 3L19 4L17 4L17 8L16 8L16 6L15 6L15 9L14 9L14 10L16 10L16 11L17 11L17 12L19 12L19 13L15 13L15 11L12 11L12 13L11 13L11 12L10 12L10 13L9 13L9 12L8 12L8 13L6 13L6 12L7 12L7 11L10 11L10 10L9 10L9 9L6 9L6 10L5 10L5 11L3 11L3 14L4 14L4 15L5 15L5 16L7 16L7 17L6 17L6 18L7 18L7 19L5 19L5 17L4 17L4 19L5 19L5 20L4 20L4 22L5 22L5 21L6 21L6 22L7 22L7 21L8 21L8 22L9 22L9 21L8 21L8 20L10 20L10 23L9 23L9 25L10 25L10 24L11 24L11 26L10 26L10 27L11 27L11 26L13 26L13 27L12 27L12 29L15 29L15 30L16 30L16 29L15 29L15 28L18 28L18 29L17 29L17 30L18 30L18 29L20 29L20 30L19 30L19 31L17 31L17 32L16 32L16 33L17 33L17 32L18 32L18 33L19 33L19 32L21 32L21 33L20 33L20 34L21 34L21 35L22 35L22 34L23 34L23 32L26 32L26 31L25 31L25 29L24 29L24 28L26 28L26 30L27 30L27 32L28 32L28 30L27 30L27 29L28 29L28 28L30 28L30 27L27 27L27 28L26 28L26 27L25 27L25 26L26 26L26 25L25 25L25 24L26 24L26 22L28 22L28 21L25 21L25 20L26 20L26 19L27 19L27 20L29 20L29 19L27 19L27 18L28 18L28 17L29 17L29 18L30 18L30 20L33 20L33 21L30 21L30 22L29 22L29 24L30 24L30 22L31 22L31 23L32 23L32 22L33 22L33 21L34 21L34 20L36 20L36 19L35 19L35 17L36 17L36 14L35 14L35 15L34 15L34 13L30 13L30 12L29 12L29 13L30 13L30 14L29 14L29 15L28 15L28 16L27 16L27 15L25 15L25 14L26 14L26 13L25 13L25 12L26 12L26 10L28 10L28 11L30 11L30 10L28 10L28 9L29 9L29 8L28 8L28 9L25 9L25 8L27 8L27 7L28 7L28 6L27 6L27 5L26 5L26 4L25 4L25 5L26 5L26 6L25 6L25 7L24 7L24 5L22 5L22 3L21 3L21 2L20 2L20 1ZM12 2L12 4L13 4L13 3L14 3L14 2ZM10 3L10 4L11 4L11 3ZM20 3L20 4L19 4L19 5L18 5L18 7L19 7L19 8L17 8L17 9L19 9L19 10L18 10L18 11L19 11L19 12L20 12L20 13L19 13L19 14L17 14L17 15L18 15L18 16L16 16L16 14L14 14L14 13L12 13L12 14L13 14L13 15L12 15L12 17L13 17L13 16L14 16L14 17L17 17L17 19L18 19L18 18L20 18L20 19L21 19L21 20L20 20L20 21L19 21L19 22L18 22L18 23L19 23L19 26L15 26L15 27L14 27L14 28L15 28L15 27L18 27L18 28L19 28L19 26L20 26L20 29L21 29L21 30L24 30L24 29L23 29L23 28L22 28L22 26L24 26L24 24L25 24L25 22L24 22L24 21L23 21L23 20L22 20L22 19L23 19L23 18L24 18L24 19L25 19L25 18L26 18L26 17L27 17L27 16L24 16L24 17L23 17L23 16L22 16L22 14L21 14L21 15L20 15L20 17L19 17L19 14L20 14L20 13L21 13L21 12L22 12L22 13L23 13L23 14L24 14L24 13L23 13L23 12L25 12L25 11L23 11L23 10L24 10L24 9L23 9L23 10L22 10L22 11L19 11L19 10L20 10L20 8L22 8L22 7L23 7L23 6L22 6L22 7L21 7L21 6L20 6L20 7L19 7L19 5L20 5L20 4L21 4L21 3ZM8 5L8 7L9 7L9 5ZM26 6L26 7L27 7L27 6ZM31 8L31 9L32 9L32 8ZM6 10L6 11L5 11L5 12L4 12L4 14L6 14L6 15L10 15L10 14L6 14L6 13L5 13L5 12L6 12L6 11L7 11L7 10ZM36 10L36 11L37 11L37 10ZM1 12L1 13L2 13L2 12ZM27 13L27 14L28 14L28 13ZM30 14L30 15L31 15L31 16L30 16L30 17L31 17L31 16L32 16L32 17L33 17L33 18L31 18L31 19L33 19L33 20L34 20L34 19L33 19L33 18L34 18L34 17L35 17L35 16L34 16L34 15L33 15L33 14L32 14L32 15L31 15L31 14ZM14 15L14 16L15 16L15 15ZM8 16L8 18L9 18L9 16ZM10 16L10 20L11 20L11 21L12 21L12 22L13 22L13 23L12 23L12 25L13 25L13 24L14 24L14 25L15 25L15 24L14 24L14 23L16 23L16 24L17 24L17 25L18 25L18 24L17 24L17 22L15 22L15 21L18 21L18 20L15 20L15 19L16 19L16 18L15 18L15 19L14 19L14 20L15 20L15 21L12 21L12 19L13 19L13 18L11 18L11 16ZM21 16L21 17L20 17L20 18L21 18L21 17L22 17L22 16ZM33 16L33 17L34 17L34 16ZM24 17L24 18L25 18L25 17ZM6 20L6 21L7 21L7 20ZM21 20L21 21L20 21L20 22L19 22L19 23L21 23L21 21L22 21L22 20ZM23 22L23 23L22 23L22 24L20 24L20 26L21 26L21 25L22 25L22 24L24 24L24 22ZM34 22L34 24L36 24L36 23L35 23L35 22ZM3 23L3 24L4 24L4 23ZM32 27L32 28L33 28L33 27ZM21 28L21 29L22 29L22 28ZM29 29L29 32L32 32L32 29ZM33 29L33 30L34 30L34 29ZM30 30L30 31L31 31L31 30ZM14 31L14 32L15 32L15 31ZM21 31L21 32L23 32L23 31ZM34 31L34 32L33 32L33 33L34 33L34 32L35 32L35 31ZM8 32L8 37L9 37L9 36L10 36L10 37L12 37L12 35L13 35L13 34L11 34L11 33L9 33L9 32ZM9 34L9 35L11 35L11 34ZM16 34L16 35L17 35L17 34ZM0 0L0 7L7 7L7 0ZM1 1L1 6L6 6L6 1ZM2 2L2 5L5 5L5 2ZM30 0L30 7L37 7L37 0ZM31 1L31 6L36 6L36 1ZM32 2L32 5L35 5L35 2ZM0 30L0 37L7 37L7 30ZM1 31L1 36L6 36L6 31ZM2 32L2 35L5 35L5 32Z" fill="#000000"/></g></g></svg>
